<svg version="1.2" xmlns="http://www.w3.org/2000/svg" viewBox="0 0 300 300" width="300" height="300">
	<defs>
		<clipPath clipPathUnits="userSpaceOnUse" id="cp1">
			<path d="m0 37h299.99v224.99h-299.99z"/>
		</clipPath>
	</defs>
	<style>
		.s0 { fill: #5196d5 } 
		.s1 { fill: #30404f } 
	</style>
	<g>
		<g id="Clip-Path" clip-path="url(#cp1)">
			<g>
				<path class="s0" d="m236.21 67.07c5.94 0.2 12.09 0.11 18.05 0.12l18.43 0.09c3.07-0.01 13.21-0.5 15.65 0.12l0.14 0.34c-0.11 1.14-15.81 27.8-17.78 31.22l-55.95 96.88-14.04 24.35c-1.76 3.08-6.5 11.8-8.53 14.08l-34.02-0.02-10.31 0.08c-2.2 0.02-6.37 0.2-8.32-0.27-0.61-0.15-4.8-7.83-5.39-8.85l-9-15.59q-7.25-12.45-14.36-24.99c-1.6-2.78-3.41-5.56-4.95-8.35l17.11-29.57c2.79-4.82 6.89-11.4 9.3-16.18 1.55 1.84 2.83 4.34 4.05 6.46l4.78 8.37 16 27.65 5.42 9.28c1.14 1.95 2.33 4.25 3.58 6.1 0.63-1.37 1.86-3.38 2.63-4.73l5.09-8.83 15.18-26.26 35.58-61.65c1.57-2.71 10.37-18.68 11.66-19.85z"/>
				<path class="s1" d="m111.47 67.39c12.94-0.3 25.95 0.18 38.9 0.06 2.84-0.03 5.83-0.09 8.67 0.03 1.93 2.68 4.91 8.33 6.67 11.39l11.57 20.03 9.55 16.53c1.65 2.83 4.24 6.82 5.47 9.7-0.73 1.67-2.04 3.84-2.96 5.44l-4.3 7.47-11.69 20.25c-2.55 4.42-4.91 8.24-7.27 12.79-3.13-5.14-6.18-10.57-9.2-15.8l-15.17-26.29-5.51-9.47c-1.1-1.92-2.55-4.8-3.92-6.38-1.13 2.18-2.91 5.04-4.18 7.26l-9.38 16.3-24.81 42.87c-2.23 3.75-4.42 7.74-6.61 11.54l-15.21 26.33c-3.17 5.49-6.28 11.48-9.76 16.71q-10.42-0.2-20.84-0.12h-31.68c0.69-2 2.51-4.88 3.65-6.83l4.95-8.53 20.35-35.24 49.72-86.15 10.17-17.67c1.36-2.37 5.76-10.41 7.45-12.15q2.68-0.06 5.37-0.07z"/>
			</g>
		</g>
	</g>
</svg>