<svg id="svg" version="1.1" viewBox="0 0 300 225" width="300" height="225" xmlns="http://www.w3.org/2000/svg"><svg xmlns="http://www.w3.org/2000/svg"><defs><clipPath id="clip-1"><rect x="0" y="0" transform="scale(0.14648,0.14648)" width="2048" height="1536" fill="none"/></clipPath></defs><g clip-path="url(#clip-1)" fill="none" fill-rule="nonzero" stroke="none" stroke-width="1" stroke-linecap="butt" stroke-linejoin="miter" stroke-miterlimit="10" stroke-dasharray="" stroke-dashoffset="0" font-family="none" font-weight="none" font-size="none" text-anchor="none" style="mix-blend-mode: normal"><path d="M236.21338,30.06519c5.94141,0.20552 12.08936,0.11704 18.04834,0.12568l18.43066,0.09053c3.07031,-0.01099 13.21143,-0.50332 15.646,0.12349l0.14355,0.33794c-0.1084,1.14038 -15.81445,27.79717 -17.78174,31.21289l-55.94824,96.88462l-14.04639,24.34863c-1.75928,3.07617 -6.49658,11.79785 -8.52979,14.08447l-34.01221,-0.02783l-10.31396,0.08203c-2.19653,0.02197 -6.36958,0.20654 -8.32017,-0.271c-0.60469,-0.14795 -4.7978,-7.8252 -5.38447,-8.84326l-9.00762,-15.59326c-4.83062,-8.30273 -9.61611,-16.63037 -14.35635,-24.98584c-1.59712,-2.77969 -3.4062,-5.56216 -4.95146,-8.34946l17.11289,-29.57783c2.78394,-4.8186 6.88315,-11.4019 9.29692,-16.17642c1.54805,1.83721 2.83564,4.33857 4.04678,6.46392l4.78726,8.36558l15.99302,27.64995l5.42578,9.27568c1.13379,1.95894 2.32617,4.24995 3.57422,6.10151c0.63574,-1.36816 1.85889,-3.37354 2.63232,-4.72705l5.09326,-8.82744l15.18164,-26.26304l35.57666,-61.64561c1.56885,-2.71846 10.37109,-18.68408 11.66309,-19.85889z" fill="#5196d5"/><path d="M111.47036,30.39155c12.94102,-0.30234 25.95117,0.17812 38.89585,0.05566c2.84619,-0.02695 5.8374,-0.08994 8.67334,0.03589c1.93359,2.67759 4.91309,8.32603 6.66797,11.39019l11.57227,20.02266l9.54639,16.53735c1.64941,2.8248 4.24072,6.81899 5.47559,9.69771c-0.72803,1.66846 -2.03906,3.84126 -2.96338,5.44351l-4.30225,7.46338l-11.68359,20.25073c-2.55469,4.41782 -4.91016,8.23857 -7.27295,12.79277c-3.13037,-5.14395 -6.17725,-10.57427 -9.19482,-15.80522l-15.17769,-26.28149l-5.50811,-9.47798c-1.09702,-1.91323 -2.55117,-4.80044 -3.91465,-6.37896c-1.13115,2.18701 -2.90947,5.04653 -4.18022,7.26533l-9.38042,16.29258l-24.81519,42.87539c-2.23271,3.74678 -4.41357,7.7395 -6.60703,11.53931l-15.21548,26.32764c-3.16479,5.49023 -6.27363,11.48145 -9.75396,16.7124c-6.94687,-0.1333 -13.89507,-0.17432 -20.84282,-0.12012l-31.67489,0.00439c0.68868,-2.0083 2.50523,-4.88379 3.64458,-6.83496l4.94818,-8.53125l20.3543,-35.24194l49.72046,-86.14878l10.17275,-17.66704c1.35469,-2.37261 5.75654,-10.41123 7.44082,-12.14692c1.79136,-0.04277 3.58301,-0.0668 5.37495,-0.07222z" fill="#30404f"/></g></svg></svg>
