<svg id="svg" version="1.1" viewBox="0 0 256.891495601173 300" width="256.891495601173" height="300" xmlns="http://www.w3.org/2000/svg"><svg xmlns="http://www.w3.org/2000/svg"><defs><clipPath id="clip-1"><rect x="0" y="0" transform="scale(0.21994,0.21994)" width="1168" height="1364" fill="none"/></clipPath></defs><g clip-path="url(#clip-1)" fill="none" fill-rule="nonzero" stroke="none" stroke-width="1" stroke-linecap="butt" stroke-linejoin="miter" stroke-miterlimit="10" stroke-dasharray="" stroke-dashoffset="0" font-family="none" font-weight="none" font-size="none" text-anchor="none" style="mix-blend-mode: normal"><path d="M73.99619,38.76224c4.31635,-2.72155 8.81569,-5.16686 13.2121,-7.75711c1.15909,-0.68292 2.21349,-1.24509 3.29054,-2.06393c4.22463,8.98812 8.29927,18.04619 12.2217,27.17001c6.42515,-8.88695 13.62889,-14.59201 25.03834,-15.64289c8.26386,-0.761 16.58138,2.30499 21.16738,9.50389c-8.62214,1.66386 -12.63717,3.89032 -14.50777,13.09927c5.90213,-0.33431 10.40433,-0.81224 16.53629,-0.58109c12.03013,0.45352 25.93812,3.21092 36.21532,9.67676c2.74619,1.72808 5.77148,4.81056 7.93174,7.12808c3.65587,2.13211 6.83556,3.94597 10.26004,6.44626c17.68284,13.06804 30.28548,31.8629 35.66305,53.18204c19.01833,72.51202 -38.72001,130.30447 -108.63563,132.56767c-7.55894,0.24413 -13.8629,0.10777 -21.32661,-0.64883c-44.19809,-4.47801 -86.47104,-32.91862 -97.4131,-77.74201c-6.14184,-25.15887 -3.17496,-54.2857 10.31589,-76.82067c2.51371,-4.22705 8.73233,-13.31789 12.56239,-16.18614l0.11393,-0.0827c-3.36466,-0.84062 -6.39633,-1.32339 -9.29868,-3.20015c1.94868,-1.65264 6.47551,-3.67082 8.85176,-5.08372c11.72991,-6.97522 21.3154,-12.9783 34.82265,-16.26048c-7.83629,-0.78013 -15.60198,-2.20161 -23.51327,-2.22955c-3.24106,-0.01166 -6.48057,0.04993 -9.71987,-0.04773c11.2368,-16.29809 34.4437,-23.86584 52.47339,-14.52977c-5.59641,-6.11459 -10.62471,-13.58622 -16.26158,-19.89721z" fill="#fe3209"/><path d="M73.99619,38.76224c4.31635,-2.72155 8.81569,-5.16686 13.2121,-7.75711c1.15909,-0.68292 2.21349,-1.24509 3.29054,-2.06393c4.22463,8.98812 8.29927,18.04619 12.2217,27.17001c6.42515,-8.88695 13.62889,-14.59201 25.03834,-15.64289c8.26386,-0.761 16.58138,2.30499 21.16738,9.50389c-8.62214,1.66386 -12.63717,3.89032 -14.50777,13.09927c5.90213,-0.33431 10.40433,-0.81224 16.53629,-0.58109c12.03013,0.45352 25.93812,3.21092 36.21532,9.67676c2.74619,1.72808 5.77148,4.81056 7.93174,7.12808c-1.08959,0.40183 -9.49795,-0.27691 -11.5401,-0.26415c-2.54604,0.03849 -5.08724,0.2327 -7.60953,0.58174c-3.54875,0.47419 -6.96224,1.5838 -10.49472,2.60938c-13.70718,3.97984 -28.01591,9.35982 -42.3066,4.63988c-1.01591,-0.33563 -1.77295,-1.1129 -2.92434,-1.21584c-0.51026,0.56437 -1.59611,6.99875 -1.99729,8.42067c-3.72163,13.19252 -16.33372,20.13937 -29.33138,21.10271c-1.05726,0.0783 -3.45286,0.13043 -4.31129,-0.30242c-0.09633,-0.43394 -0.04553,-0.99941 0.15352,-1.38057c3.24018,-6.20762 5.61488,-12.45308 4.43336,-19.58424c-0.24128,-1.45601 -0.76979,-3.44714 -2.0349,-4.41994c-1.87126,-0.56833 -5.42397,3.10799 -6.82874,4.37331c-12.13174,10.92779 -28.54839,9.70623 -43.66804,6.15506c-3.36466,-0.84062 -6.39633,-1.32339 -9.29868,-3.20015c1.94868,-1.65264 6.47551,-3.67082 8.85176,-5.08372c11.72991,-6.97522 21.3154,-12.9783 34.82265,-16.26048c-7.83629,-0.78013 -15.60198,-2.20161 -23.51327,-2.22955c-3.24106,-0.01166 -6.48057,0.04993 -9.71987,-0.04773c11.2368,-16.29809 34.4437,-23.86584 52.47339,-14.52977c-5.59641,-6.11459 -10.62471,-13.58622 -16.26158,-19.89721z" fill="#03912e"/></g></svg></svg>