<svg id="svg" version="1.1" viewBox="0 0 256.67574931880114 300" width="256.67574931880114" height="300" xmlns="http://www.w3.org/2000/svg"><svg xmlns="http://www.w3.org/2000/svg"><defs><clipPath id="clip-1"><rect x="0" y="0" transform="scale(0.20436,0.20436)" width="1256" height="1468" fill="none"/></clipPath></defs><g clip-path="url(#clip-1)" fill="none" fill-rule="nonzero" stroke="none" stroke-width="1" stroke-linecap="butt" stroke-linejoin="miter" stroke-miterlimit="10" stroke-dasharray="" stroke-dashoffset="0" font-family="none" font-weight="none" font-size="none" text-anchor="none" style="mix-blend-mode: normal"><path d="M106.56826,36.87098c5.24162,-0.26117 10.45198,0.94782 15.04292,3.49067c6.16349,3.42466 10.54087,8.17459 12.71669,14.91785c6.43079,19.9314 -9.08501,40.16935 -4.86376,54.49067c1.2795,4.34101 3.8861,8.53631 7.97248,10.69292c4.425,2.33542 10.26846,2.22589 14.96567,0.70708c13.25068,-4.2844 12.61267,-20.29332 17.86083,-30.62105c3.92616,-7.72663 9.93597,-13.33876 18.25933,-16.03713c7.24905,-2.35014 16.18876,-2.69837 23.11042,0.87364c7.27725,3.75674 12.4455,10.52125 14.87534,18.26383c2.83038,9.01737 2.10695,19.80184 -2.30722,28.18856c-1.59809,3.03862 -3.5906,5.67834 -6.11853,8.00681c-6.65191,6.12139 -13.74319,6.16226 -22.29871,6.41383c-5.89598,0.1735 -11.79482,0.45 -17.46601,2.21873c-4.61832,1.44033 -9.18576,4.00381 -11.46662,8.46846c-1.69353,3.31553 -1.90116,9.00409 -0.69401,12.53093c4.35593,12.7265 32.22343,14.33685 43.8327,16.83495c5.3624,1.15402 10.5327,2.81608 15.4639,5.2455c9.26158,4.56356 17.26839,12.43569 20.61172,22.34428c2.43392,7.20817 1.75749,15.50109 -1.62875,22.30014c-3.12466,6.27997 -8.10695,11.35218 -14.85286,13.59809c-4.70845,1.56948 -9.84605,1.27316 -14.7282,0.87466c-20.01233,-1.62875 -33.14939,-17.74046 -44.27677,-32.66689c-3.58753,-4.81124 -7.50674,-10.91914 -13.06369,-13.63018c-2.71308,-1.32364 -5.52425,-1.3359 -8.34114,-0.32166c-2.75702,0.99278 -5.05586,3.46083 -6.27527,6.07909c-4.65041,9.98583 5.42943,21.16226 8.60886,30.20313c2.05504,5.84264 1.32405,12.29837 -1.31444,17.80586c-1.11785,2.29496 -2.91458,4.68392 -4.69271,6.49455c-5.63971,5.74251 -11.40858,7.52452 -19.29401,7.5797c-8.35177,0.05722 -16.51431,-1.59809 -22.61955,-7.67984c-9.23563,-9.19619 -8.05872,-20.68324 -4.54189,-32.19687c1.79428,-5.8733 4.003,-11.96322 3.98522,-18.14918c-0.00797,-2.81649 -0.65191,-5.01887 -2.69673,-7.04346c-2.17459,-2.15334 -6.09871,-3.81887 -9.19782,-3.60184c-9.71853,0.68052 -18.55811,13.95388 -25.07452,20.55674c-7.69087,7.79428 -11.66097,11.02725 -22.90708,11.52997c-6.96744,0.31267 -14.9814,-2.48297 -19.97289,-7.16689c-5.24998,-4.92507 -8.08085,-11.05381 -8.15642,-18.22316c-0.08585,-8.14455 1.54445,-14.22895 7.24478,-20.1891c12.24666,-12.80497 26.18236,-7.12786 41.75988,-7.73113c3.34986,-0.12956 7.67309,-0.58202 10.06369,-3.13978c1.34837,-1.44257 1.92405,-3.59101 1.7765,-5.4795c-1.10416,-14.11778 -27.72589,-15.58958 -38.91233,-19.60136c-4.86866,-1.8002 -9.35354,-4.50368 -13.2188,-7.96819c-9.85032,-8.92909 -11.22584,-22.71928 -2.33583,-32.9626c4.82738,-5.2173 13.10027,-8.10674 19.98495,-8.3767c13.96819,-0.54789 23.39019,7.40089 29.85266,19.06349c2.10041,3.79046 5.20525,8.5827 8.28474,11.51853c9.14775,8.72166 29.11614,7.02119 27.53685,-9.10995c-2.05238,-20.81015 -32.24653,-24.32514 -33.57629,-45.10688c-0.31287,-4.89053 0.81376,-9.38747 2.45436,-13.98924c4.68781,-13.15014 17.33501,-19.45688 30.62841,-20.30007z" fill="#0dc953"/></g></svg></svg>