<svg id="svg" version="1.1" viewBox="0 0 300 300" width="300" height="300" xmlns="http://www.w3.org/2000/svg"><svg xmlns="http://www.w3.org/2000/svg"><defs><clipPath id="clip-1"><rect x="0" y="0" transform="scale(0.17321,0.17321)" width="1732" height="1732" fill="none"/></clipPath><linearGradient x1="24.21946" y1="133.62714" x2="22.70525" y2="136.80294" gradientUnits="userSpaceOnUse" id="color-1"><stop offset="0" stop-color="#e9ab85"/><stop offset="1" stop-color="#f2c9bb"/></linearGradient><linearGradient x1="25.74856" y1="98.36605" x2="26.62517" y2="99.33793" gradientUnits="userSpaceOnUse" id="color-2"><stop offset="0" stop-color="#dc5c15" stop-opacity="0.7451"/><stop offset="1" stop-color="#dc5d15" stop-opacity="0.81569"/></linearGradient></defs><g clip-path="url(#clip-1)" fill="none" fill-rule="nonzero" stroke="none" stroke-width="1" stroke-linecap="butt" stroke-linejoin="miter" stroke-miterlimit="10" stroke-dasharray="" stroke-dashoffset="0" font-family="none" font-weight="none" font-size="none" text-anchor="none" style="mix-blend-mode: normal"><path d="M35.73118,91.40958c0.31057,0.05006 0.47494,0.06773 0.78915,0.08418l-0.09579,0.09059c0.76853,0.20266 5.28533,-0.46455 6.72436,-0.09804c0.73008,0.18585 3.49936,2.00595 4.18025,1.88851c0.03239,-0.00554 0.68314,-0.57454 0.80421,-0.67985c0.34885,0.04971 0.60104,0.097 0.94555,0.17252c1.77887,-0.71917 8.19405,-2.65618 10.27154,-2.82696c1.64376,0.57471 3.94417,1.07304 5.5183,1.69452c1.14232,0.45087 1.84885,1.06559 2.7601,1.40023c2.62171,0.96288 4.61501,2.01253 6.89498,3.569c0.35248,0.24059 2.09169,-0.17079 2.59729,-0.16195c0.68314,-0.02165 0.9213,0.61663 1.05935,0.61472c1.25127,-0.01836 3.43597,-0.77667 4.62904,-1.08204c0.7164,-0.18343 1.11114,-1.27777 1.77454,-1.41738l-0.63551,0.90485l0.07673,0.1093l0.86155,-0.41674c0.89567,-0.44151 4.06611,-0.92754 5.21986,-1.1418l-0.07136,0.02304l0.49885,-0.16282c-0.11328,0.14221 -0.30069,0.34971 -0.36963,0.50075c0.52812,-0.38054 1.04758,-0.77286 1.55785,-1.17679l0.1552,0.03516l-0.72298,0.81114c0.38331,-0.18672 0.76957,-0.36721 1.15878,-0.54111c0.02321,0.3265 0.03689,0.15987 -0.26311,0.52379c2.64856,-1.18943 4.70699,-3.55393 8.04786,-2.6463c1.27015,0.34503 1.35104,0.01472 2.73204,0.7959c0.57748,-0.01663 1.02073,-0.22188 1.46328,-0.60052c1.74977,1.3474 2.81622,2.27754 4.3351,3.96963c0.79711,1.74734 2.00162,3.71311 1.62488,5.66761c-0.49018,2.54324 2.71022,7.19186 5.43048,6.49452c1.27569,0.20456 2.03383,-0.44411 2.79717,-0.02442l0.23712,-0.1138l-0.11449,-0.02875l0.10791,0.01559c-0.7403,0.47079 -0.7183,0.29273 -1.05312,0.98539l0.12367,0.29775l0.51097,-0.04988c-0.21461,0.29359 -0.42159,0.53643 -0.65473,0.8127l0.29861,0.30017c2.0761,-0.27315 3.39717,-2.0664 4.82719,-3.38262l-0.50387,-0.0802l-0.03724,-0.37275c0.25029,-0.79815 0.52119,-1.01172 1.10352,-1.58349l0.19642,-0.19105l-0.09821,-0.16178l-0.71137,0.08227l-0.15572,-0.14948c0.21582,-0.331 0.61212,-0.88718 0.53938,-1.23741c-0.17061,-0.8224 2.71316,-1.42691 3.13545,-2.50012c0.2444,-0.62079 0.48637,-0.79244 0.30849,-1.41478c-0.40029,-0.05872 -0.2858,-0.00502 -0.63066,-0.18274c1.58297,-2.83199 4.92644,-1.26426 6.98539,-1.74942c3.67933,1.18025 4.11253,6.58216 5.68822,9.30537c2.02258,3.49555 4.50831,6.09007 5.94128,9.997c0.01386,0.35525 0.03083,0.44463 0.26276,0.69336c3.02529,3.24319 4.31969,1.60479 6.62442,1.76813c-0.41952,0.88943 -0.2877,0.61888 -0.54232,1.63147l-0.06443,0.25185l0.43251,0.25254l0.10393,-0.30381l0.27385,0.00849c0.05352,0.52535 -0.02737,0.36218 0.21738,0.78118l0.31507,-1.25318c0.08037,0.15745 0.13129,0.58372 0.16507,0.78308c0.50214,-0.07223 1.28297,-0.87731 1.80139,-1.26911l0.21911,-0.1642c-0.36721,-0.17823 -0.3045,-0.1287 -0.74515,-0.12038l-0.13233,0.00329c0.57748,-0.39249 1.17644,-0.59376 1.60306,-0.88251l-0.96409,-0.43857l0.07517,-0.17875l0.33551,0.02096c0.41276,-0.94625 0.88666,-0.82604 1.73816,-0.78516c0.14775,-0.29082 0.09509,-0.13337 -0.04278,-0.58736c0.80595,-0.82777 1.85144,0.35958 2.13118,-0.09561c0.74047,-1.20485 0.76767,-1.447 2.05375,-2.09221l-0.09319,-0.10756l-0.43666,0.09405l-0.06305,-0.15918c0.33672,-0.05681 0.18066,0.00658 0.46645,-0.19486c-0.33793,-0.1526 -1.34948,0.06859 -2.00352,0.07171c0.29394,-0.28718 0.59013,-0.57194 0.88857,-0.85445l-0.04746,-0.21478l-0.80387,-0.10774l-0.09648,-0.27575c0.70583,-0.98487 2.27858,-1.24763 3.40774,-1.08066c1.85456,-1.54296 7.44145,1.53239 9.18482,2.35098c0.32823,0.15398 2.05497,0.20421 2.50167,0.22777l-0.08505,0.03326c1.00479,0.15208 3.82812,0.58268 4.35987,1.50485l-0.85046,-0.27887l-0.09007,0.15935l0.7933,0.82119l-0.57679,0.07102l-0.06062,0.14602c0.7067,0.22136 1.3164,0.36253 2.05947,0.21617c-0.33949,0.25514 -0.62009,0.31992 -1.01848,0.45641l0.1403,0.11553c-0.23383,0.05837 1.20554,-0.29013 0.82968,-0.25808c2.17725,-0.18568 4.40647,0.44913 6.6149,-0.34001c0.44688,-0.1597 1.35277,-1.22927 1.76674,-1.45774c0.96824,-0.53279 1.38048,0.0071 2.10797,-0.98054l0.63222,0.32182c0.76212,-0.44931 2.03695,-1.08447 2.6761,-1.50797l0.32217,0.0414c-0.36547,0.59948 -0.29619,0.57107 -1.01848,0.69734l-0.13164,0.32633c0.55427,0.02113 1.93822,-0.40808 2.26386,-0.88406c-0.3239,-0.00294 -0.49365,0.0097 -0.81582,0.04226l0.14896,-0.08227c0.39492,-0.22084 0.58891,-0.28718 0.85566,-0.65647c-0.71709,-0.15779 -0.8418,0.43441 -1.80658,0.12107l-0.67032,0.46715c-0.06755,-0.37569 0.0433,-0.38331 0.2858,-0.81634c0.99076,-0.26553 0.77598,-0.06634 1.61952,-0.79763c1.03233,-0.18291 1.55196,0.12194 2.13395,0.03915c2.22921,-0.31663 4.53291,-0.45035 6.59238,0.67032c0.84353,0.45935 0.55947,1.24521 1.83776,1.91518l0.25115,-0.36236l0.19226,0.07448c1.29388,0.48776 2.27079,0.4157 3.18707,0.9045l-0.01212,0.18707l-0.48152,-0.3362l-0.16282,0.15225l0.22171,0.48066l-0.29273,0.12766l0.10912,0.22933c-0.48672,0.20785 -0.55427,0.17512 -1.07564,0.18759l0.07275,0.33118c2.5739,1.60756 2.52021,-0.90624 4.74596,0.66651c0.81236,-0.17148 1.47921,-0.32962 2.28118,-0.55167l-0.57679,0.2612c2.20323,-0.54319 3.45901,-0.99457 5.03695,-2.73118l0.42436,-0.01334c0.29965,-0.32997 0.55254,-0.58129 0.78984,-0.96201c-0.25289,-0.27939 -0.26674,-0.23331 -0.62009,-0.42558c0.03637,-0.60554 0.72402,-0.84267 1.23326,-1.07148c0.23903,0.19365 0.40531,0.33949 0.62875,0.55046c0.64954,-0.09371 1.35624,-0.42471 1.87413,-0.48603c2.76443,-0.3265 5.65358,2.12425 8.23614,1.36178c1.91917,1.24659 5.26559,2.29296 7.25577,3.52448c2.26559,1.52737 4.14838,4.56755 7.29215,4.319c0.80889,-0.06391 2.40416,0.2295 2.9463,0.02252l0.09873,0.15035c-0.65993,0.42333 -0.49711,0.18378 -0.67725,0.85531c-1.35277,0.43562 -2.55312,0.03204 -3.92321,0.03187c0.42436,0.41085 2.45958,0.91126 3.13337,1.08845c0.31697,-0.28095 0.55427,-0.58077 0.95092,-0.60935c-0.43649,0.4358 -0.41397,0.23695 -0.42783,0.65196c0.41917,-0.01801 0.88857,-0.43562 1.29734,-0.71033c0.11432,0.18308 0.06755,0.07102 0.12644,0.34919c0.64261,-0.37656 0.86605,-0.52933 1.43591,-1.00878c-0.01732,-0.35456 -0.06928,-0.29342 0.08487,-0.6317l-0.09353,-0.08054l0.34988,0.57471l0.11952,-0.08262l-0.02945,-0.11657l0.0052,0.00398c0.02771,-0.4933 -0.05023,-0.2638 0.31524,-0.68072c0.00866,0.4183 -0.00866,0.78066 0.10566,1.18233c0.26328,-0.56224 0.44342,-0.86467 0.77079,-1.39573c0.70497,-0.03256 0.85393,-0.1287 1.52945,-0.38747c-0.34296,-0.14394 -0.31871,-0.13372 -0.57506,-0.40462l1.48614,-0.5593l-0.12471,-0.18984c-0.00866,-0.39423 -0.03118,-0.3795 0.13337,-0.73199l0.50751,0.04625c0.72748,-1.38585 2.80774,-2.7873 4.14319,-3.5224l0.24423,-0.13112l-0.08141,-0.91905l-0.43303,0.13337c-0.15589,-0.57558 -0.15069,-0.61992 -0.50924,-1.0791c-1.0254,0.1138 -0.8418,1.40231 -2.0612,1.01137l-0.0433,-0.25895c2.19111,-3.49365 6.01905,0.32546 7.35797,-3.46195c1.39607,0.3795 2.75577,0.64261 4.27309,1.26236c4.66628,1.90687 9.3343,4.62436 14.31755,5.61305c0.73961,0.14671 1.37702,-0.94694 2.32621,-0.10012l0.09527,-0.07136l-0.23903,-0.35699c0.41917,-0.09596 3.67379,0.78741 4.12067,1.04463c1.71478,0.9873 2.17725,3.50162 2.42494,5.31288l0.01905,0.15277l0.27367,0.32338c-0.24076,4.10214 -1.78926,9.75017 -3.41397,13.52494c-1.18476,2.75335 -5.25346,5.02794 -7.61259,6.72835c-2.63799,1.90012 -7.3112,6.78828 -8.49942,9.80023c1.32852,0.11761 4.04446,-3.15017 5.55658,-3.8489l0.25289,0.07413c-0.5179,2.06796 -0.66859,3.35058 1.98326,3.69977c-0.20439,0.2399 -2.55312,1.76259 -2.95497,2.03193c-0.49365,0.47512 -1.51732,1.49065 -1.84122,2.02898l0.13337,0.06721c0.54734,-0.56796 1.52252,-0.64036 2.33487,-0.95889c1.00635,-0.39371 3.22691,0.0989 4.32506,0.17685c1.34238,-0.2011 1.75808,-0.76472 3.20092,-0.15953c1.85855,0.77962 3.07621,1.34498 4.04446,3.24336c0.54561,1.07096 0.71709,5.40139 -0.44515,5.9754l-0.38279,-0.31022c-0.00173,1.67979 -0.33776,2.48834 -0.51617,4.072c-0.50577,4.7056 0.08834,11.02604 -3.59758,14.56472c-0.31005,0.29792 -3.83834,2.71074 -4.03406,2.7679c-3.66513,1.07217 -5.78522,3.72748 -8.38164,6.31871c-0.6582,0.65647 -1.13279,1.76155 -1.71478,2.50982c-1.34238,1.29388 -3.70843,2.5358 -5.33487,3.31871c-0.8851,-1.02367 -0.10566,-1.01848 -2.02656,-0.9388c-1.06697,0.0433 -1.86028,0.42436 -2.83025,-0.10912c0.18187,-0.03811 0.3291,-0.12298 0.49365,-0.20266l-0.17321,-0.1836c-1.69746,0.23037 -1.40993,-0.05716 -2.98095,-0.55081c-1.16051,-0.36547 -2.44053,-0.31351 -3.60797,-0.80023l-0.03464,-0.15069l0.43303,-0.13164c-0.64781,-0.48672 -2.41282,-0.1836 -2.75058,-0.3291c-2.22748,-0.95266 -2.38337,-1.42032 -4.92956,-1.53637l0.40531,-0.3343l-0.06755,0.26501l0.09353,-0.18014c-0.47286,-0.33776 -0.40878,-0.2321 -1.07737,-0.29965c-0.70497,0.57679 -0.74134,0.82794 -1.47402,0.78984l-0.06582,-0.2373c0.4746,-0.30831 0.52656,-0.29099 1.06351,-0.41744l-0.09353,-0.18533c-1.38915,0.38279 -2.40589,0.87471 -3.73614,0.48326l0.31697,0.18533c-1.31293,-0.40358 -2.33487,0.27021 -3.62009,0.67206c-1.70439,0.53176 -3.44688,1.05139 -5.07333,1.78406c-1.16051,0.52309 -2.31062,1.09122 -3.46247,1.63684c-1.13279,-0.01905 -3.68245,-0.39665 -4.86721,-0.71189c-0.51097,-0.1351 -0.53695,-0.18187 -0.98383,-0.02771c0.41744,0.49885 0.86432,0.21478 0.87818,0.6097c-0.50058,-0.18533 -0.87298,-0.35508 -1.41339,-0.40012c0.00346,-0.31524 0.07968,-1.22979 -0.07968,-1.39088c-0.29446,-0.29619 -1.17956,-0.7933 -1.57275,-0.81755l-0.36201,0.28406c-0.7448,-1.07044 -3.13164,-3.68591 -4.23672,-1.69746c-1.49827,0.06582 -2.24307,-0.72921 -3.88684,-0.43476c-3.49365,0.62875 -6.22344,4.20035 -9.47979,4.74596c-0.653,0.11085 -0.77945,-0.09873 -1.51732,0.26674c-2.43707,-0.95092 -5.44573,-4.19169 -8.47344,-5.11836l-0.17841,0.08661l-0.14896,0.53002c-0.194,-0.4157 -0.21651,-0.69457 -0.53002,-0.82102c-0.31524,0.556 -0.10393,0.34642 -0.65127,0.6582c0.60624,0.16975 0.84353,0.16801 1.25924,0.64088l-0.08487,0.1836c-0.91801,0.0052 -1.28868,-0.41397 -1.99711,-0.60624c-0.85219,-0.11259 -2.63972,0.00693 -3.4261,0.22517c-2.67263,0.73788 -4.80485,2.94457 -7.36143,3.94919c-0.58545,0.22864 -1.05139,-0.3239 -1.40127,-0.42956c-1.04446,-0.35508 -7.0933,-0.653 -7.82945,-0.22517l0.45208,0.57333l-0.09613,0.07968c-0.5709,-0.41917 -1.18355,-0.80716 -1.91276,-0.58025l-0.12159,0.27021l0.25081,0.59584c-0.16455,-0.05543 -0.06824,-0.01559 -0.29688,-0.16801l-0.19815,-0.13337l-0.42731,0.20785l-0.49971,-0.29273l-0.13181,0.11778c0.25704,0.31697 0.28406,0.30312 0.6362,0.51443c-0.62113,-0.00866 -2.23857,-0.69284 -2.84446,-0.68591c-0.65872,0.01039 -1.1754,0.85046 -2.09688,0.69111c0.22154,-0.15242 0.37933,-0.27714 0.58822,-0.44688l-0.11397,-0.19919c-1.13158,0.71709 -0.98401,-0.12298 -1.30393,-0.14203c-0.52812,-0.03118 -2.54446,0.38972 -3.00918,0.03637c-0.62321,-0.47286 -0.81357,-0.50924 -1.51749,-0.68764l-0.20855,-0.05196l0.25202,0.00346c-0.96391,-0.20266 -1.45618,-0.30485 -2.38961,-0.63915c0.30624,-0.02425 1.08724,-0.01905 1.2433,-0.18533c-0.35006,-0.05889 -0.72055,-0.11085 -1.05416,-0.22864c-1.5336,-0.55081 -3.07881,-1.06871 -4.63458,-1.55196c-0.55635,-0.16801 -0.41605,0.05889 -1.20658,-0.23383c-1.20191,-1.34411 -0.9097,-1.04792 -2.56801,-1.07217c-1.82945,-1.22979 -1.06143,-0.03118 -2.83147,0.15069l-0.21755,0.06062l0.80318,-0.50404l-0.0459,-0.14723c-0.8302,0.07275 -1.65035,0.73788 -2.14607,0.77252c-0.76212,0.0537 -1.65762,-0.32737 -2.647,-0.31697c0.43614,0.16801 0.77615,0.24249 1.081,0.58891c-0.72956,0.09007 -1.13816,-0.15762 -2.07003,-0.11432c-1.16397,1.00982 -2.34942,0.53695 -3.56622,1.10508c-2.7627,1.28522 -5.4265,2.75924 -8.30352,3.79503c-0.00035,0 -1.40491,-0.33256 -1.53949,-0.36547l0.4791,0.05543c-1.12292,-0.37413 -2.30092,-0.68938 -3.44324,-1.00982c-0.63637,-0.70843 0.15173,-1.39434 -0.82933,-1.88799c-1.0642,0.1455 -1.89734,0.0918 -2.21016,-1.14665l0.58112,-0.06062c-0.12333,-0.27714 -4.06057,-1.74423 -4.65191,-1.97979c-0.37084,0.42956 -0.0045,0.43822 -0.26969,1.0791c-0.55826,-0.62702 -1.68048,-0.59584 -2.453,-0.71016c-5.02517,-0.73961 -7.35381,4.60566 -11.89833,5.36778c-0.24094,0.04157 -2.07107,0.14203 -2.46894,-0.07275c-0.04936,-0.80023 -1.45237,-0.95266 -2.04596,-1.50346l-0.41328,0.24249c-0.18689,-0.59758 0.26848,-0.53176 -0.01334,-1.18649l-1.44873,-0.43995c-0.21963,0.24942 -0.10185,0.1403 -0.34954,0.33256l-0.19192,-0.28233c0.09457,-0.42263 0.21738,-0.69284 0.0362,-1.07044c-0.26328,-0.08661 -0.4959,-0.17148 -0.75485,-0.27021c0.06824,-0.45901 -0.00572,-0.76039 -0.32667,-1.07564c-0.0653,0.21305 -0.11813,0.40358 -0.17356,0.62009c-1.1593,-1.05139 -1.57552,-2.69515 -2.55398,-3.0433c-0.69457,-0.24769 -0.7093,-0.27714 -1.45393,-0.71882c0.42315,-0.21305 0.32945,-0.09873 0.60156,-0.43303c-2.2403,-0.68938 -1.02558,-0.41051 -2.35323,-1.60393l-0.06478,0.40358l-0.17234,-0.01559l-0.4403,-0.52483c-0.10479,0.4694 -0.15987,0.81582 -0.51547,1.12933c-0.06755,-0.15416 -0.03222,-0.04677 -0.00624,-0.35855l0.02598,-0.28406c-0.22032,-0.44169 -0.05768,-0.33256 -0.40652,-0.48845l0.07517,0.95266c-0.31368,-0.34296 -0.46282,-0.55254 -0.9052,-0.71536c-3.85514,-1.41859 -6.81028,-1.24538 -10.55629,0.45901l0.11657,-0.12125c-0.69267,0.22864 -4.30479,3.01905 -5.14954,3.65127c-0.2496,-0.48152 0.26588,-1.42552 -0.01871,-2.17379c-0.25843,0.38799 -0.25912,0.55774 -0.31715,1.00462l-0.17529,0.04157l-0.24509,-0.34988c-2.40589,1.53811 -0.64452,0.96305 -1.86322,2.19977l-0.10185,0.10219c0.20543,0.59065 0.21669,0.64434 0.29792,1.26617l-0.17615,-0.07968c-0.11796,-0.65127 -0.11293,-0.70843 -0.43493,-1.27136l-0.19833,0.03984l-0.08054,0.70843l-0.13372,0.08834l-0.11345,-0.35335c-2.144,1.11547 -0.39665,1.66975 -0.67708,2.53233c-1.17939,0.49538 -0.95924,1.43418 -2.58239,1.46536c0.16576,-0.33776 0.25878,-0.26328 0.75104,-0.43476c-0.01109,-0.4694 0.06513,-0.26674 -0.24024,-0.62529c-0.95318,0.35335 -1.82823,0.54388 -2.27512,1.43764c0.64625,0.19226 0.44169,0.0052 0.77061,0.42956c-0.39163,0.56813 -1.42829,0.47286 -2.0858,0.74134c0.04677,-0.01905 -1.66594,-0.63222 -1.73054,-0.66166c-1.32454,-0.59758 -1.56391,0.16282 -2.26784,0.33603l0.43095,-0.49365c-0.42714,-0.7067 -1.87258,0.62529 -2.60092,-0.89896l-0.2612,0.05023l-0.11449,0.39665l0.20733,0.36721l-0.21721,0.01905c-0.45416,-0.23557 -1.02194,-0.57679 -1.53897,-0.49365c-0.56172,0.0918 -1.1754,-0.38626 -1.70699,-0.65993l-0.19763,-0.10046l0.69128,-0.30139l-0.02667,-0.13164c-0.52067,-0.12644 -1.04913,0.06409 -1.58435,0.194c-0.12575,-0.19573 -0.25375,-0.38799 -0.38401,-0.57852c-0.48759,-0.70323 -0.58493,-0.55427 -1.48666,-0.71882l-0.19157,0.24596c-0.32598,-0.75173 -0.12921,-0.58891 -0.72887,-0.96305l-0.28476,0.06928l-0.05196,0.46247l-0.11952,0.04677c-0.02598,-0.63568 -0.21166,-0.77079 -0.68678,-1.1224l-0.14879,0.21998c-0.21946,-0.33256 -0.1351,-0.21998 -0.47667,-0.4642c-0.10375,0.09873 -0.20751,0.19746 -0.31143,0.29446c-0.13614,-0.47113 -0.11397,-0.57506 -0.48222,-0.8955l-0.31853,0.0485l-0.22448,0.5664c-0.0705,-0.24942 -0.11345,-0.49711 -0.15017,-0.75173c-0.6963,-0.21478 -1.12413,-0.47113 -1.68689,-0.9336l-0.23037,0.33083c-0.10029,-0.39492 -0.1112,-0.62182 -0.40895,-0.8955c-0.45866,0.34988 -0.88943,0.2806 -1.41842,0.194l-0.04192,-0.20612c0.47494,-0.01905 0.88095,0.03811 1.24919,-0.17667c-0.9336,-0.59411 -2.09619,0.13684 -2.78297,-0.03984c-0.98678,-0.25462 -1.20866,-1.10508 -2.63002,-1.02887l-0.09925,0.29619l0.20352,-0.31524l-0.20976,0.30485c-0.05248,-0.01905 3.9052,1.50866 3.41605,1.18303c-0.66807,0.17841 -0.64885,0.11432 -1.31276,-0.10219l-0.25427,-0.08487l-0.0892,0.18707c0.44931,0.36894 1.68187,0.40012 2.34319,0.4694l0.02702,0.15589c-1.87136,0.33083 -4.46744,-1.70092 -7.05416,-0.41917c-7.40283,3.66513 1.78891,9.86778 -1.12691,15.15416c-1.54781,2.80774 -3.94781,2.45612 -6.59134,2.70035c-1.3694,0.16975 -1.26218,-0.35162 -2.52818,-0.6963c-0.60294,-0.16455 -1.07841,-0.20092 -1.42206,-0.66686l0.04763,-0.01039c0.57835,0.30658 1.09088,0.7015 1.73193,0.3776l0.14931,0.07102c-0.60779,-0.21824 -0.73112,-0.22864 -1.21178,-0.63222l-0.01368,-0.4642l-0.63412,-0.59584c-0.20352,0.0918 -0.37431,0.18533 -0.55895,0.30831l-0.36859,-0.21651l-0.00017,-0.48499l-0.24994,-0.17148l-0.21894,0.10566c0.02893,0.45381 0.12766,0.61663 -0.00242,1.04965c-0.3246,-0.62182 -0.24423,-1.37875 -0.5709,-1.94342c-0.37128,-0.64088 -0.9917,-1.00982 -1.37406,-1.69919l-0.48738,0.08314c0.02077,-0.29965 -0.02163,-0.14896 0.26321,-0.42263c-0.47233,-0.19746 -0.35084,-0.03811 -0.52968,-0.38626l0.46836,-0.14203c-0.80636,-0.56293 -0.72904,0.25808 -1.69452,-0.33603c0.3508,-0.16282 0.35373,-0.13684 0.59979,-0.42783c-2.15461,-0.71536 -1.04117,-2.79908 -2.87589,-3.68072c-0.45327,-0.21824 -0.50567,-0.22517 -0.71001,-0.653c-0.01332,-1.0254 -0.2563,-0.75173 -0.36388,-1.89838c-0.2965,-3.16109 -0.02735,-6.22344 0.09161,-9.36547c0.02331,-0.06928 0.04663,-0.13684 0.06996,-0.20612l-0.09946,-0.24769c0.69346,-2.32102 0.77728,-3.93187 2.28913,-6.15242c0.67883,-0.99769 1.0297,-1.9642 2.31547,-2.45439c0.05486,0.48845 -0.46942,1.51386 -0.68829,2.02829l-0.03837,0.02425c-0.16952,0.51617 -0.33275,0.79503 -0.15975,1.29734l0.34507,0.08141l0.41264,-0.32737l0.13943,0.14376c0.3136,-0.30658 0.16639,-0.23903 0.55585,-0.35855l0.10398,0.39492l0.1275,0.02079c0.69016,-1.00635 2.4985,-3.21132 2.95474,-4.06871l-0.80751,0.50404l-0.12038,-0.12298c0.19659,-0.45554 2.37229,-3.0433 3.03291,-4.14076c2.07385,-1.69452 10.94809,-4.36992 11.519,-6.57766c-0.36288,-0.18672 -0.48222,-0.15294 -0.89134,-0.16645c-0.30935,0.40271 -0.33118,0.44861 -0.73684,0.78828l-0.10687,-0.61334l-0.1765,-0.04659c-0.119,0.35958 -0.0944,0.37691 -0.34936,0.64677l-0.47771,-0.01316l0.0336,-0.3433c2.71247,-2.97419 1.25162,-4.18736 2.17361,-6.38522c0.29169,0.35681 0.47581,2.20323 0.55878,2.78678c0.1332,0.16542 0.22916,0.33031 0.32962,0.51686l0.26345,-0.11882c0.06824,-0.15779 0.15589,-0.32719 0.16871,-0.54319c0.12921,-2.16391 -0.55583,-3.89376 -0.85064,-5.99792l-1.09244,-1.05935c-0.04677,-0.49174 0.13788,-0.44359 -0.15883,-0.84752l-0.12488,0.51773l-0.28147,-0.12731c-0.47356,-1.12846 -0.06565,-2.77777 -0.02789,-3.98661c0.10081,-0.43216 -0.59065,-1.18337 -0.62338,-1.4877c-0.36894,-3.43355 -2.6735,-5.61634 -5.92535,-6.43337c-0.37812,-0.09509 -0.05751,0.16715 -0.6388,-0.15225c1.19602,-0.32182 1.83759,0.04417 2.69255,-0.53158l-0.00104,0.0026c-1.43487,-1.2026 -6.01749,-0.3414 -7.45115,-2.0198c-0.27818,-0.32581 -0.56345,-0.63897 -0.84509,-0.96114c-2.49686,-0.17702 -1.49144,-0.85341 -2.83057,-2.45439c-0.27523,-0.3291 -1.65435,-0.55912 -1.92875,-1.19619c-0.3277,-0.76074 -0.25159,-1.60479 -0.84333,-2.19786c-0.5334,-0.52569 -0.50707,0.18499 -1.3408,-0.39579c0.15123,0.32719 -0.75237,-3.8709 -0.77073,-3.58095c0.12606,-1.99036 -0.14477,-4.06091 -0.06951,-6.02408c0.26368,-6.87696 4.69477,-13.76276 9.38986,-18.56657c0.2392,-0.23712 1.17436,-0.13181 1.62506,-0.13025c-0.41155,0.181 -0.81322,0.31212 -1.13193,0.61957c0.90017,0.01282 0.77044,0.19781 1.58331,0.419l0.3362,-0.24388l-0.52829,-0.10531l-0.08297,-0.14342l0.34919,-0.30554c0.26207,0.09145 0.27835,0.09388 0.57038,0.16039c2.29607,-2.40381 4.73557,-4.69365 6.9582,-7.06576c2.09238,-2.23372 5.05237,-2.45179 6.51617,-4.44284c0.11328,-1.64619 -1.94584,-1.46224 -3.0918,-0.4746l0.01542,-0.12038c0.79763,-0.82188 1.61016,-1.58816 2.76218,-1.7877zM183.23557,118.16068c-2.47344,-1.44977 -1.86028,0.12783 -4.21074,-0.52258l-0.0918,-0.17252l-0.16109,-0.01576c-0.14376,0.49174 -0.01386,0.29861 -0.35508,0.62737c1.01501,0.40358 3.81409,0.37691 4.93822,0.21288z" fill-opacity="0.92941" fill="#da5d15"/><path d="M15.92834,124.822c1.00216,-9.62875 12.08165,-20.33972 19.23125,-26.14278c1.53793,-1.231 3.09648,-2.43603 4.67529,-3.6142c2.45958,2.92292 7.54867,7.12535 10.44371,10.02055c3.22517,-2.97419 5.76894,-5.56663 7.01882,-9.93759c1.86998,1.74527 4.73886,2.68147 7.11928,3.56952c4.11357,1.53482 8.17968,3.29099 12.36166,4.6138c2.70762,0.83626 6.82898,0.64157 8.03401,-2.37748c0.12488,-0.30191 0.38661,-0.9388 0.67431,-1.07875c0.25618,1.29094 -0.65283,3.18152 -1.37009,4.24417c-1.61986,2.39965 -4.43054,3.85566 -7.08516,4.80745c0.15849,7.52841 -0.05525,15.13285 0.0705,22.66282c-3.06201,1.65277 -6.84873,4.14994 -9.89723,6.01749c2.44988,0.96374 10.49203,4.74561 12.58337,3.84163c1.3015,-0.56259 1.65329,-2.27304 2.36622,-3.36339c-0.12523,4.20676 -1.05606,6.80612 -5.12546,8.69965c0.22985,9.29706 -0.10548,18.67569 0.04503,27.98072c0.04036,2.50115 0.29134,3.07794 1.83655,4.97979c-7.91952,0.19053 -16.28643,7.68707 -20.88014,13.80139c-5.03002,-2.34007 -10.09538,-4.60219 -15.19452,-6.78637c-5.80098,-2.52887 -12.23591,-6.07448 -18.84682,-3.84007c-6.24579,2.1097 -7.31598,8.59642 -5.27702,14.26732c0.28355,0.81409 0.64936,1.597 1.09174,2.33661c0.96928,1.09642 1.31068,1.44111 2.37766,2.36259c0.77962,0.67206 2.9347,1.72517 3.18533,2.15127c-1.26461,0.31351 -3.78378,-1.27136 -4.61016,-2.19804c-0.50664,-0.31871 -0.87194,-0.73614 -1.26132,-1.17436c-7.24722,-8.17552 -2.16773,-22.69746 7.72413,-26.21882c4.63251,-1.64809 8.3948,-1.62506 13.25681,-1.20901c-0.31767,-3.93585 0.83054,-14.90092 -0.74169,-17.77691c-0.8787,-1.60739 -2.64128,-2.08147 -4.26132,-2.59018c1.45878,-0.45485 4.28661,-1.57171 4.61518,-3.2683c0.53661,-2.77084 0.3705,-5.91201 0.37223,-8.75837l0.00104,-11.24394c-0.00156,-4.79827 0.0388,-9.6142 -0.07985,-14.53926c-0.06963,-2.88967 -6.67465,-8.3198 -9.25064,-9.42471c-1.57812,-0.67673 -4.1463,2.53684 -5.24567,3.70774c-4.64099,4.94255 -8.16253,9.90398 -9.16959,16.80035c0.13439,3.08245 0.11927,5.09948 2.10019,7.62766l-0.53886,0.61247c-2.15875,-2.62361 -3.06412,-6.22361 -2.3488,-9.56241z" fill="#fefefe"/><path d="M18.27714,134.38441c-2.15875,-2.62361 -3.06412,-6.22361 -2.3488,-9.56241c0.0736,1.18268 0.15871,4.8052 0.68771,5.67333c0.03785,-0.64677 0.04465,-0.54076 -0.09864,-1.14094c-0.19264,-0.80664 0.01387,-2.1679 0.08906,-3.05855l0.10933,-0.15156c0.13439,3.08245 0.11927,5.09948 2.10019,7.62766z" fill="#f2d1c0"/><path d="M19.80364,199.52425c0.96928,1.09642 1.31068,1.44111 2.37766,2.36259c0.77962,0.67206 2.9347,1.72517 3.18533,2.15127c-1.26461,0.31351 -3.78378,-1.27136 -4.61016,-2.19804c0.31611,0.1351 0.3918,0.16628 0.72488,0.24769c-0.21236,-0.96305 -1.35398,-1.20727 -1.67771,-2.56351z" fill="#f2d1c0"/><path d="M52.36524,144.69319c4.17696,1.52286 8.5907,3.35318 12.74446,4.99001c0.25098,10.55733 0.01975,22.16952 0.02217,32.83528c-4.18926,-1.3112 -8.47032,-3.35335 -12.79902,-4.70958z" fill="#da5d15"/><path d="M52.38204,106.88176c4.09521,1.38482 8.67003,3.25167 12.73441,4.81161c0.1403,8.25537 0.00121,16.90254 0.02321,25.18891c-2.15889,-0.82206 -4.21594,-1.42483 -5.90023,-3.01715c-0.44584,-0.18118 -0.8754,0.92945 -1.09659,1.30531c-1.62229,2.75768 -3.73701,5.12841 -5.85364,7.5071c0.31905,-11.78106 -0.16386,-23.95254 0.09284,-35.79579z" fill="#da5d15"/><path d="M161.87564,115.54278c3.16212,1.37079 19.8149,8.30352 21.85878,7.81386c1.47575,-0.35404 2.25693,-1.83256 3.02598,-3.00191c-0.70323,3.38245 -1.30427,5.58828 -5.09065,6.3873c0.17667,5.02483 -0.0918,10.39971 0.01039,15.4668c0.04677,2.41628 -0.20785,5.50185 0.31524,7.84573c0.30312,1.35329 1.80139,2.12667 2.92725,2.78799c-2.70381,1.15029 -3.1888,2.14452 -3.20266,5.03193c-0.02598,7.30133 -0.12298,14.62777 0.03811,21.92633c0.0433,1.92956 2.89607,2.4388 4.35797,1.87413c0.64088,-0.24769 1.33025,-1.07737 1.83083,-1.09642c-0.65993,1.34411 -1.90704,2.37644 -2.96709,3.43476c-3.16628,3.16109 -5.6276,5.28118 -7.41859,9.47979c-2.33141,-2.73672 -5.32968,-5.60162 -7.81784,-8.32448c-2.37142,2.72113 -3.66807,4.88279 -4.90895,8.23961c-2.15196,-1.16917 -6.67604,-2.69342 -9.05647,-3.66339c-3.39457,-1.23845 -6.73476,-2.72806 -10.17211,-3.84007c-2.42754,-0.78464 -3.34348,-0.61836 -4.82148,1.36663c-0.08539,0.14203 -0.28077,0.33603 -0.40029,0.46767l-0.13701,-0.1455c0.26692,-2.86836 2.0321,-4.88279 4.83949,-5.47517c-0.06634,-4.44111 0.10167,-8.89954 -0.01784,-13.34082c-0.07569,-2.81259 -1.06559,-4.47107 -2.98493,-6.4287c13.41218,-0.47841 16.72431,-13.65624 27.66859,-13.11253l-0.00797,-17.77794c-1.17852,-0.30208 -3.2761,-1.20762 -4.48268,-1.68378l-8.29711,-3.26207c-0.02217,4.25647 -0.18378,9.11241 0.12315,13.34636c0.23574,3.24942 1.34861,4.39815 3.7086,6.2399c-5.003,-1.35901 -5.62015,-3.04677 -8.84169,-6.953c-2.88083,-3.4933 -4.67252,-4.28314 -8.91322,-4.72933c2.13759,-1.71911 2.09376,-2.46478 1.98533,-5.12027c8.02379,-0.44775 14.26524,-6.4351 16.84885,-13.75341z" fill="#fefefe"/><path d="M168.62667,151.09452c0.47702,-0.05162 0.56934,-0.10982 1.00323,0.09042c0.21374,0.7112 0.12402,7.89249 0.1235,9.02512l0.00589,22.05381c-2.71905,-0.9388 -5.5791,-2.1149 -8.272,-3.16975c-1.47558,-0.56467 -2.95687,-1.11374 -4.44353,-1.64723c0.06686,-3.18187 -0.02425,-6.36253 -0.00191,-9.53972c0.09475,-1.7496 -0.22673,-4.06403 0.21842,-5.73915c1.41236,-5.31513 5.72217,-10.38482 11.3664,-11.0735z" fill="#da5d15"/><path d="M197.14261,115.47038c4.09296,3.69804 7.29908,7.46848 13.26443,6.62269c-1.22633,1.319 -1.98845,2.13707 -3.37413,3.30987c0.19746,5.92846 0.01039,13.60289 -0.09007,19.61103c3.54215,1.11669 9.22864,3.56796 12.83834,4.99469c-0.23037,-6.46212 -0.02945,-14.35912 -0.02079,-20.93314c-2.28464,-0.86796 -3.12644,-1.29856 -4.82044,-3.031c2.1963,-3.55237 4.75462,-7.07512 6.99423,-10.64671c3.44688,3.98262 7.6351,7.19238 13.08603,6.80768c-1.04792,1.17991 -1.93822,2.17639 -3.22344,3.09821c0.07968,6.51634 -0.15416,13.10629 -0.02079,19.6403c-5.37471,1.28522 -5.76963,2.97194 -9.84007,5.71455l-0.18533,0.12281c3.20092,0.856 7.99192,3.81495 11.06467,3.19105c0.99942,-0.20283 1.9157,-2.11091 2.42148,-3.05508c-0.67552,3.68037 -1.08603,5.37177 -5.00924,6.49677c0.12471,3.16957 -0.4642,21.97448 0.36894,23.27356c0.41224,0.64261 1.1276,1.09988 1.87933,1.21767c1.76155,0.2806 3.18187,-0.82794 4.49307,-1.80831c-1.26443,2.04215 -6.22171,6.52309 -8.3851,9.0918c-1.22979,1.57448 -1.71305,2.51848 -2.51501,4.3545c-1.72171,-1.96767 -5.74018,-5.60681 -7.79273,-7.41339c-0.11432,-2.5739 -0.02771,-5.83891 -0.02771,-8.45785l0.01559,-15.48412l-12.79157,-4.92367c-0.10566,6.96686 -0.23037,16.37373 0.02079,23.26403c3.12644,2.30196 4.08603,1.52598 6.90416,-0.63741c-2.92379,4.694 -8.24654,6.92667 -11.03176,13.56755c-2.48037,-2.45439 -5.17898,-4.91744 -7.74076,-7.29561c-0.12125,-2.70035 -0.02771,-6.07794 -0.02771,-8.81986l-0.02771,-15.71259c4.12413,-0.8321 6.54908,-2.65878 9.68418,-5.2429c-2.53406,-1.03043 -7.78233,-3.57385 -10.49134,-3.17598c-1.29734,0.19036 -2.02656,1.69226 -2.75924,2.77985c0.60104,-2.98424 1.43245,-5.71836 4.97806,-6.22812c0.097,-6.8101 0.02598,-13.84711 0.01212,-20.67021c-2.21709,-0.89463 -3.08834,-1.33303 -4.75808,-3.01351c1.58141,-2.9224 4.94515,-7.45202 6.90762,-10.60912z" fill="#fefefe"/><path d="M260.21882,115.48493c3.00346,1.36143 19.55889,8.21172 21.76039,7.95901c1.41513,-0.16247 2.52194,-1.94463 3.29099,-2.9787c-0.78811,3.36495 -1.40647,5.50878 -5.21189,6.30624c0.10219,3.45918 -0.81409,5.21397 2.11143,7.67737c-12.30831,0.96166 -13.93129,16.6254 -26.72979,19.43712c0.15935,7.73539 0.02771,15.93897 0.00173,23.70294c4.28522,1.51386 8.48383,3.25115 12.76039,4.79792c0.01905,-2.12009 0.10219,-4.47229 0.02252,-6.58199c-0.06236,-1.66282 -0.70323,-2.3851 -1.86201,-3.35058c8.10104,-0.62182 8.30716,-6.2399 13.7321,-10.39538c1.04792,-0.80248 2.60508,-1.27015 3.86605,-1.67979l-2.02136,1.778c-2.61201,3.20491 -1.88279,13.15583 -1.7806,17.58482c-8.28637,0.53002 -14.06467,6.35681 -16.88626,13.78926c-2.87875,-1.4515 -6.98383,-2.80081 -10.0254,-4.04446c-3.03984,-1.10162 -6.01732,-2.44746 -9.09527,-3.43129c-3.45727,-1.10508 -3.84873,-0.05196 -5.69169,2.41801c0.68591,-3.27367 1.42032,-5.32448 5.02656,-6.29792l0.01732,-16.81801c0.00173,-1.77333 0.03984,-3.58666 0.00346,-5.35756c-0.07275,-3.56986 0.38279,-5.2403 -3.09873,-7.03406c1.31467,-0.83695 2.67956,-1.76449 2.90473,-3.45173c0.28926,-2.66172 0.22344,-5.47483 0.1888,-8.16184c-0.05023,-3.96288 0.09007,-8.047 -0.09527,-11.9974c2.35393,-0.24579 5.33834,-1.13124 7.41686,-2.24324c4.5433,-2.48539 7.91917,-6.66409 9.39492,-11.62673z" fill="#fefefe"/><path d="M255.49711,126.54977c3.58372,1.48268 9.097,3.70878 12.71882,4.94013c0.06755,7.17766 -0.01905,9.5586 -4.9209,15.37136c-2.68649,2.81726 -4.27136,4.00999 -7.85508,5.48141c0.16455,-8.52385 -0.08661,-17.22021 0.05716,-25.7929z" fill="#da5d15"/><path d="M130.44249,100.85785c0.14619,4.64931 0.01524,9.97171 -0.00104,14.67177c2.6056,0.01316 5.21137,-0.01524 7.81611,-0.08487l-5.12494,6.22742l-2.70745,-0.03048c0.10271,8.34717 -0.06565,16.71773 0.01524,25.06715c0.0343,3.54804 0.02027,4.30046 3.15139,6.12281c-2.39463,1.03372 -3.07587,1.99503 -3.09579,4.55352c-0.0336,4.28418 -0.16697,8.68718 -0.07206,12.96963c0.06755,3.0407 -0.30104,7.57015 0.20196,10.43331c1.11565,1.78753 3.27263,1.56409 4.94879,0.75866l0.2321,0.69804c-3.87748,3.71189 -7.2653,6.53176 -9.56744,11.44573c-2.24307,-2.3903 -5.26264,-5.05774 -7.72881,-7.31467c-0.22517,-8.85104 0.13839,-17.82835 -0.00606,-26.69273c-0.05525,-3.38747 0.4526,-5.05219 -2.99307,-6.82725c3.53383,-2.27875 2.94301,-3.64417 2.99255,-7.51836c0.01975,-1.55144 -0.00779,-3.15658 -0.00797,-4.70751l-0.00035,-18.97639c-2.01149,-0.01161 -3.91559,-0.0239 -5.92552,0.06374c1.07893,-2.06155 2.37973,-4.22286 3.53037,-6.27558c9.44827,0.65144 11.89746,-6.94781 14.34197,-14.58395z" fill="#fefefe"/><path d="M94.27413,115.17298c0.57558,0.36582 1.63909,1.44353 2.20167,1.9306c3.37483,2.92171 6.42558,5.50497 11.09619,4.52667c-1.14111,1.14665 -2.29815,2.46634 -3.60987,3.38557c0.11605,1.54815 0.05023,4.07338 0.05144,5.67523l-0.01126,11.13932c-0.00121,2.09706 -0.05577,4.19273 0.09457,6.28926c0.17165,2.39359 0.96513,3.18689 3.07968,4.16952c-1.16137,0.62719 -2.43239,1.48077 -2.84169,2.80618c-0.51599,1.67165 -0.54665,24.46645 -0.04313,25.36888c0.38626,0.69111 1.32627,1.11547 2.06051,1.28868c1.6351,0.38799 2.50566,-0.49192 3.75987,-1.28868l0.16663,0.16455c-0.29983,0.81582 -5.82488,6.15416 -6.82431,7.19515c-1.65658,1.83083 -2.65271,3.35508 -3.68816,5.57217c-2.10606,-2.30889 -5.32794,-5.22921 -7.66455,-7.45323c-0.25427,-6.46594 0.14532,-13.52806 -0.01057,-20.07644c-0.07604,-3.19365 0.31022,-7.94273 -0.37656,-11.047c-0.24596,-1.11184 -1.86963,-1.93285 -2.86178,-2.39671c1.72431,-0.88788 2.95826,-1.68915 3.13684,-3.77581c0.20387,-2.38008 0.12592,-4.76484 0.11952,-7.15306l-0.01091,-12.95352c-2.2067,-0.68193 -3.0989,-1.23741 -4.75393,-2.82662c1.57656,-2.82818 5.00162,-7.59284 6.92979,-10.5407z" fill="#fefefe"/><path d="M98.00924,95.22246c2.22973,2.01443 4.91207,4.9015 7.18129,7.081c-2.12096,2.26212 -4.80572,4.79809 -7.04671,7.03545c-0.64573,-0.20716 -6.16819,-5.98355 -7.23863,-6.96634c2.38718,-2.23458 4.82061,-4.79498 7.10404,-7.15012z" fill="#fefefe"/><path d="M18.81599,133.77194c3.19192,2.89936 5.94388,3.13476 9.82881,1.53464l0.28077,0.70999c-3.98366,1.57206 -7.47748,1.58955 -10.64844,-1.63216z" fill="url(#color-1)"/><path d="M28.6448,135.30658c2.90595,-1.5343 4.0138,-2.65652 5.52956,-5.572c0.16507,-0.31732 0.53124,-1.08793 0.8974,-1.04671c-0.5787,2.46149 -2.60248,5.27806 -4.81212,6.63378c-0.42644,0.26501 -0.87246,0.49729 -1.33406,0.69492z" fill="#e79870"/><path d="M178.77194,117.44983l0.16109,0.01576l0.0918,0.17252c2.35046,0.6504 1.7373,-0.92719 4.21074,0.52258l0.11952,0.12939c-1.12413,0.16403 -3.92321,0.1907 -4.93822,-0.21288c0.34122,-0.32875 0.21132,-0.13562 0.35508,-0.62737z" fill-opacity="0.89804" fill="#da5d15"/><path d="M135.57471,181.54677c0.62269,-0.63741 1.12396,-0.91282 1.86651,-1.38222c-0.50283,0.68591 -1.04463,1.48441 -1.63441,2.08025z" fill="#f2d1c0"/><path d="M272.86663,110.22939c1.25924,0.32962 5.3037,1.20242 6.25982,1.25595c16.74769,0.91871 16.57621,8.9082 12.59584,22.531c-1.9261,6.59099 -4.2194,7.57933 -8.99654,12.27263c-1.44977,1.42431 -4.7754,1.97685 -3.42263,4.52529c1.20727,0.84838 1.57968,0.04053 2.91166,0.22985c0.46247,0.06565 1.16744,-0.19088 1.60219,-0.01212c5.03695,2.07125 9.04503,4.99382 8.66917,11.02275c-0.18014,2.90612 -1.11028,5.68805 -1.67494,8.54255c-1.01328,6.21045 -0.41051,11.70294 -5.49769,16.45583c-2.58776,2.41801 -5.91513,3.42263 -8.35739,5.2985c-5.04388,3.87298 -7.70266,11.07159 -15.5179,10.43245c-6.82794,-0.55947 -11.72286,-4.5433 -18.99942,-4.60046c-2.2933,-0.04157 -4.57794,0.32564 -6.74307,1.08256c-4.02194,1.39954 -6.23903,3.40878 -10.82217,3.17667c-4.24365,-0.21478 -8.32968,-4.19688 -11.87529,-4.11374c-4.55716,0.10739 -6.7985,4.3649 -12.42436,4.12413c-5.18764,-0.21998 -7.36836,-3.56986 -11.91166,-3.6963c-2.71594,-0.07621 -6.41051,2.89954 -9.27021,3.51963c-3.15416,0.68245 -6.18776,0.36028 -9.39475,0.38972c-1.78285,0.01559 -3.74879,0.12471 -5.49492,0.07621c-7.50156,-0.20785 -13.6791,-4.93303 -21.23435,-4.78233c-2.60837,0.05196 -4.69452,0.18707 -7.21611,1.15531c-4.22927,1.62298 -5.95133,3.53176 -10.72933,3.50924c-5.14573,-0.02425 -9.15797,-5.03176 -13.08326,-5.11836c-4.8918,-0.10739 -7.8627,5.72633 -14.30699,4.66109c-5.06657,-0.83661 -9.24145,-4.55196 -12.6537,-8.27079c-0.90017,-1.35104 -2.42252,-3.33083 -3.93343,-3.8851c-0.31455,-0.11605 -0.22639,-0.10219 -0.43147,-0.4157c0.05855,-0.08314 0.13961,-0.20266 0.20993,-0.28233c0.21911,-0.24769 1.00237,-0.97691 1.30046,-0.96651c2.29885,0.08834 7.36005,6.13164 9.39908,7.80312c10.48995,8.60162 13.4205,-1.95727 19.9157,-2.22921c4.14024,-0.17321 7.20035,3.95266 10.86478,5.27425c0.66253,0.23903 1.40196,0.31871 2.09532,0.42263c0.67673,0.10046 1.32159,0.25115 2.01288,0.18533c3.89273,-0.3776 7.08118,-3.45381 10.9739,-4.19169c6.53747,-1.23672 12.02789,0.22864 18.11345,2.42667c2.95341,1.06524 5.85398,1.99192 9.0291,1.97979c1.98499,-0.00693 3.96911,-0.15416 5.9541,-0.18533c2.6754,-0.04157 5.52125,0.2858 8.13499,-0.36201c3.35855,-0.83141 6.01386,-4.11547 9.52136,-4.17263c4.97113,-0.07794 8.27945,4.91224 13.51039,4.20554c4.09642,-0.55254 6.78811,-4.6403 10.89838,-4.70439c4.83776,-0.07275 8.03176,5.04388 13.06005,4.77021c3.03984,-0.16628 5.61201,-1.71305 8.37298,-2.80427c2.69861,-1.03753 5.58256,-1.51039 8.47171,-1.38915c2.02656,0.0537 4.03926,0.36374 5.98788,0.92494c4.58487,1.31813 9.3776,3.95958 14.24827,3.57679c5.78868,-0.36721 8.00231,-6.22864 11.8545,-9.29619c4.5433,-3.61836 10.47748,-4.31813 12.01732,-10.91224c0.68938,-2.94284 0.58025,-5.806 1.10681,-8.78124c0.85219,-4.82027 4.09815,-10.84313 -0.86432,-14.69203c-3.22517,-2.40745 -7.46189,-1.79428 -11.19804,-1.18736c0.40185,-0.26934 2.75058,-1.79203 2.95497,-2.03193c-2.65185,-0.34919 -2.50115,-1.63181 -1.98326,-3.69977l-0.25289,-0.07413c-1.51212,0.69873 -4.22806,3.96651 -5.55658,3.8489c1.18822,-3.01195 5.86143,-7.90012 8.49942,-9.80023c2.35912,-1.7004 6.42783,-3.975 7.61259,-6.72835c1.62471,-3.77477 3.17321,-9.42281 3.41397,-13.52494c0.69457,-10.76761 -9.47979,-8.18609 -16.3112,-10.90497c-0.91975,-0.36634 -1.9157,-0.48031 -2.77829,-0.95785l-0.08141,-0.31923c0.51443,-0.5153 0.65127,-0.41016 1.44457,-0.58666z" fill-opacity="0.35294" fill="#da5d15"/><path d="M275.90473,155.00855c3.73614,-0.60693 7.97286,-1.22009 11.19804,1.18736c4.96247,3.8489 1.71651,9.87177 0.86432,14.69203c-0.52656,2.97523 -0.41744,5.83839 -1.10681,8.78124c-1.53984,6.59411 -7.47402,7.29388 -12.01732,10.91224c-3.85219,3.06755 -6.06582,8.92898 -11.8545,9.29619c-4.87067,0.38279 -9.66339,-2.25866 -14.24827,-3.57679c-1.94861,-0.5612 -3.96132,-0.87125 -5.98788,-0.92494c-2.88915,-0.12125 -5.77309,0.35162 -8.47171,1.38915c-2.76097,1.09122 -5.33314,2.63799 -8.37298,2.80427c-5.02829,0.27367 -8.22229,-4.84296 -13.06005,-4.77021c-4.11028,0.06409 -6.80196,4.15185 -10.89838,4.70439c-5.23095,0.7067 -8.53926,-4.28349 -13.51039,-4.20554c-3.50751,0.05716 -6.16282,3.34122 -9.52136,4.17263c-2.61374,0.64781 -5.45958,0.32044 -8.13499,0.36201c-1.98499,0.03118 -3.96911,0.17841 -5.9541,0.18533c-3.17512,0.01212 -6.07569,-0.91455 -9.0291,-1.97979c-6.08557,-2.19804 -11.57598,-3.66339 -18.11345,-2.42667c-3.89273,0.73788 -7.08118,3.81409 -10.9739,4.19169c-0.69128,0.06582 -1.33614,-0.08487 -2.01288,-0.18533c-0.69336,-0.10393 -1.43279,-0.1836 -2.09532,-0.42263c-3.66443,-1.32159 -6.72454,-5.44746 -10.86478,-5.27425c-6.49521,0.27194 -9.42575,10.83083 -19.9157,2.22921c-2.03903,-1.67148 -7.10023,-7.71478 -9.39908,-7.80312c-0.29809,-0.01039 -1.08135,0.71882 -1.30046,0.96651c-0.07032,0.07968 -0.15139,0.19919 -0.20993,0.28233c0.20508,0.31351 0.11692,0.29965 0.43147,0.4157c1.51091,0.55427 3.03326,2.53406 3.93343,3.8851c-0.48031,0.17841 -0.78724,0.50058 -1.14994,0.84353c-0.44186,-0.27367 -1.79342,-1.93995 -2.32344,-2.36952c-1.40785,-1.14319 -3.01091,-1.29734 -4.73972,-1.2194c0.70514,-0.75346 1.24919,-0.87644 1.91796,-1.82737l-0.08938,-0.2858c-6.7112,-1.89665 -13.05329,9.78291 -19.72344,10.49827c-9.34001,1.00289 -17.29244,-7.05312 -26.36969,-7.55889c-1.72292,-0.09527 -2.69446,0.60797 -3.78828,1.75635c-0.1429,4.81178 3.31195,7.33891 2.10762,11.87182c-1.18095,4.44457 -6.39613,5.39896 -10.24105,4.09642c-4.2749,-1.4463 -7.66169,-4.96247 -9.64595,-8.96536c-2.6714,-5.1582 -2.42447,-12.32217 -0.63095,-17.73499c0.02323,0.68418 0.02912,2.14781 0.19935,2.72806l0.09946,0.24769c-0.02333,0.06928 -0.04665,0.13684 -0.06996,0.20612c-0.11896,3.14203 -0.38811,6.20439 -0.09161,9.36547c0.10758,1.14665 0.35056,0.87298 0.36388,1.89838c0.20434,0.42783 0.25673,0.43476 0.71001,0.653c1.83473,0.88164 0.72128,2.96536 2.87589,3.68072c-0.24606,0.29099 -0.24899,0.26501 -0.59979,0.42783c0.96547,0.59411 0.88815,-0.22691 1.69452,0.33603l-0.46836,0.14203c0.17884,0.34815 0.05735,0.1888 0.52968,0.38626c-0.28484,0.27367 -0.24244,0.12298 -0.26321,0.42263l0.48738,-0.08314c0.38236,0.68938 1.00278,1.05831 1.37406,1.69919c0.32667,0.56467 0.2463,1.32159 0.5709,1.94342c0.13008,-0.43303 0.03135,-0.59584 0.00242,-1.04965l0.21894,-0.10566l0.24994,0.17148l0.00017,0.48499l0.36859,0.21651c0.18464,-0.12298 0.35543,-0.21651 0.55895,-0.30831l0.63412,0.59584l0.01368,0.4642c0.48066,0.40358 0.60398,0.41397 1.21178,0.63222l-0.14931,-0.07102c-0.64105,0.3239 -1.15358,-0.07102 -1.73193,-0.3776l-0.04763,0.01039c0.34365,0.46594 0.81911,0.50231 1.42206,0.66686c1.26599,0.34469 1.15878,0.86605 2.52818,0.6963c2.64353,-0.24423 5.04353,0.10739 6.59134,-2.70035c2.91582,-5.28637 -6.27592,-11.48903 1.12691,-15.15416c2.58672,-1.28176 5.18279,0.75 7.05416,0.41917l-0.02702,-0.15589c-0.66132,-0.06928 -1.89388,-0.10046 -2.34319,-0.4694l0.0892,-0.18707l0.25427,0.08487c0.66391,0.21651 0.64469,0.2806 1.31276,0.10219c0.48915,0.32564 -3.46853,-1.20208 -3.41605,-1.18303l0.20976,-0.30485l-0.20352,0.31524l0.09925,-0.29619c1.42136,-0.07621 1.64324,0.77425 2.63002,1.02887c0.68678,0.17667 1.84936,-0.55427 2.78297,0.03984c-0.36824,0.21478 -0.77425,0.15762 -1.24919,0.17667l0.04192,0.20612c0.52898,0.08661 0.95976,0.15589 1.41842,-0.194c0.29775,0.27367 0.30866,0.50058 0.40895,0.8955l0.23037,-0.33083c0.56276,0.46247 0.99059,0.71882 1.68689,0.9336c0.03672,0.25462 0.07968,0.50231 0.15017,0.75173l0.22448,-0.5664l0.31853,-0.0485c0.36824,0.32044 0.34607,0.42436 0.48222,0.8955c0.10393,-0.097 0.20768,-0.19573 0.31143,-0.29446c0.34157,0.24423 0.25722,0.13164 0.47667,0.4642l0.14879,-0.21998c0.47512,0.35162 0.6608,0.48672 0.68678,1.1224l0.11952,-0.04677l0.05196,-0.46247l0.28476,-0.06928c0.59965,0.37413 0.40289,0.21132 0.72887,0.96305l0.19157,-0.24596c0.90173,0.16455 0.99908,0.01559 1.48666,0.71882c0.13025,0.19053 0.25826,0.38279 0.38401,0.57852c0.53522,-0.12991 1.06368,-0.32044 1.58435,-0.194l0.02667,0.13164l-0.69128,0.30139l0.19763,0.10046c0.53158,0.27367 1.14527,0.75173 1.70699,0.65993c0.51703,-0.08314 1.08482,0.25808 1.53897,0.49365l0.21721,-0.01905l-0.20733,-0.36721l0.11449,-0.39665l0.2612,-0.05023c0.72835,1.52425 2.17379,0.19226 2.60092,0.89896l-0.43095,0.49365c0.70393,-0.17321 0.9433,-0.9336 2.26784,-0.33603c0.06461,0.02945 1.77731,0.64261 1.73054,0.66166c0.65751,-0.26848 1.69417,-0.17321 2.0858,-0.74134c-0.32893,-0.42436 -0.12436,-0.2373 -0.77061,-0.42956c0.44688,-0.89376 1.32194,-1.0843 2.27512,-1.43764c0.30537,0.35855 0.22916,0.15589 0.24024,0.62529c-0.49226,0.17148 -0.58528,0.097 -0.75104,0.43476c1.62315,-0.03118 1.403,-0.96998 2.58239,-1.46536c0.28043,-0.86259 -1.46692,-1.41686 0.67708,-2.53233l0.11345,0.35335l0.13372,-0.08834l0.08054,-0.70843l0.19833,-0.03984c0.322,0.56293 0.31697,0.62009 0.43493,1.27136l0.17615,0.07968c-0.08124,-0.62182 -0.09249,-0.67552 -0.29792,-1.26617l0.10185,-0.10219c1.21871,-1.23672 -0.54267,-0.66166 1.86322,-2.19977l0.24509,0.34988l0.17529,-0.04157c0.05803,-0.44688 0.05872,-0.61663 0.31715,-1.00462c0.28458,0.74827 -0.23089,1.69226 0.01871,2.17379c0.84475,-0.63222 4.45687,-3.42263 5.14954,-3.65127l-0.11657,0.12125c3.74602,-1.70439 6.70115,-1.8776 10.55629,-0.45901c0.44238,0.16282 0.59151,0.3724 0.9052,0.71536l-0.07517,-0.95266c0.34885,0.15589 0.1862,0.04677 0.40652,0.48845l-0.02598,0.28406c-0.02598,0.31178 -0.06132,0.20439 0.00624,0.35855c0.3556,-0.31351 0.41068,-0.65993 0.51547,-1.12933l0.4403,0.52483l0.17234,0.01559l0.06478,-0.40358c1.32766,1.19342 0.11293,0.91455 2.35323,1.60393c-0.27211,0.3343 -0.17841,0.21998 -0.60156,0.43303c0.74463,0.44169 0.75935,0.47113 1.45393,0.71882c0.97846,0.34815 1.39469,1.99192 2.55398,3.0433c0.05543,-0.21651 0.10826,-0.40704 0.17356,-0.62009c0.32096,0.31524 0.39492,0.61663 0.32667,1.07564c0.25895,0.09873 0.49157,0.1836 0.75485,0.27021c0.18118,0.3776 0.05837,0.64781 -0.0362,1.07044l0.19192,0.28233c0.24769,-0.19226 0.12991,-0.08314 0.34954,-0.33256l1.44873,0.43995c0.28181,0.65473 -0.17356,0.58891 0.01334,1.18649l0.41328,-0.24249c0.59359,0.55081 1.99659,0.70323 2.04596,1.50346c0.39786,0.21478 2.228,0.11432 2.46894,0.07275c4.54452,-0.76212 6.87315,-6.10739 11.89833,-5.36778c0.77252,0.11432 1.89475,0.08314 2.453,0.71016c0.26518,-0.64088 -0.10115,-0.64954 0.26969,-1.0791c0.59134,0.23557 4.52858,1.70266 4.65191,1.97979l-0.58112,0.06062c0.31282,1.23845 1.14596,1.29215 2.21016,1.14665c0.98106,0.49365 0.19296,1.17956 0.82933,1.88799c1.14232,0.32044 2.32032,0.63568 3.44324,1.00982l-0.4791,-0.05543c0.13458,0.03291 1.53915,0.36547 1.53949,0.36547c2.87702,-1.0358 5.54082,-2.50982 8.30352,-3.79503c1.2168,-0.56813 2.40225,-0.09527 3.56622,-1.10508c0.93187,-0.0433 1.34047,0.20439 2.07003,0.11432c-0.30485,-0.34642 -0.64486,-0.4209 -1.081,-0.58891c0.98938,-0.01039 1.88487,0.37067 2.647,0.31697c0.49573,-0.03464 1.31588,-0.69977 2.14607,-0.77252l0.0459,0.14723l-0.80318,0.50404l0.21755,-0.06062c1.81542,0.28233 3.61005,0.50577 5.39948,0.92148c0.79053,0.29273 0.65023,0.06582 1.20658,0.23383c1.55577,0.48326 3.10098,1.00115 4.63458,1.55196c0.3336,0.11778 0.7041,0.16975 1.05416,0.22864c-0.15606,0.16628 -0.93707,0.16109 -1.2433,0.18533c0.93343,0.3343 1.42569,0.43649 2.38961,0.63915l-0.25202,-0.00346l0.20855,0.05196c0.70393,0.17841 0.89428,0.21478 1.51749,0.68764c0.46472,0.35335 2.48106,-0.06755 3.00918,-0.03637c0.31992,0.01905 0.17234,0.85912 1.30393,0.14203l0.11397,0.19919c-0.20889,0.16975 -0.36669,0.29446 -0.58822,0.44688c0.92148,0.15935 1.43816,-0.68072 2.09688,-0.69111c0.60589,-0.00693 2.22333,0.67725 2.84446,0.68591c-0.35214,-0.21132 -0.37916,-0.19746 -0.6362,-0.51443l0.13181,-0.11778l0.49971,0.29273l0.42731,-0.20785l0.19815,0.13337c0.22864,0.15242 0.13233,0.11259 0.29688,0.16801l-0.25081,-0.59584l0.12159,-0.27021c0.72921,-0.22691 1.34186,0.16109 1.91276,0.58025l0.09613,-0.07968c2.06952,-0.08314 5.45127,0.26848 7.37737,-0.34815c0.34988,0.10566 0.81582,0.6582 1.40127,0.42956c2.55658,-1.00462 4.6888,-3.21132 7.36143,-3.94919c0.78637,-0.21824 2.5739,-0.33776 3.4261,-0.22517c0.70843,0.19226 1.0791,0.61143 1.99711,0.60624l0.08487,-0.1836c-0.4157,-0.47286 -0.653,-0.47113 -1.25924,-0.64088c0.54734,-0.31178 0.33603,-0.10219 0.65127,-0.6582c0.31351,0.12644 0.33603,0.40531 0.53002,0.82102l0.14896,-0.53002l0.17841,-0.08661c3.02771,0.92667 6.03637,4.16744 8.47344,5.11836c0.73788,-0.36547 0.86432,-0.15589 1.51732,-0.26674c3.25635,-0.54561 5.98614,-4.11721 9.47979,-4.74596c1.64376,-0.29446 2.38857,0.50058 3.88684,0.43476c1.10508,-1.98845 3.49192,0.62702 4.23672,1.69746l0.36201,-0.28406c0.39319,0.02425 1.27829,0.52136 1.57275,0.81755c0.15935,0.16109 0.08314,1.07564 0.07968,1.39088c0.54042,0.04503 0.91282,0.21478 1.41339,0.40012c-0.01386,-0.39492 -0.46074,-0.11085 -0.87818,-0.6097c0.44688,-0.15416 0.47286,-0.10739 0.98383,0.02771c1.18476,0.31524 3.73441,0.69284 4.86721,0.71189c1.15185,-0.54561 2.30196,-1.11374 3.46247,-1.63684c1.62644,-0.73268 3.36894,-1.25231 5.07333,-1.78406c1.28522,-0.40185 2.30716,-1.07564 3.62009,-0.67206l-0.31697,-0.18533c1.33025,0.39145 2.347,-0.10046 3.73614,-0.48326l0.09353,0.18533c-0.53695,0.12644 -0.58891,0.10912 -1.06351,0.41744l0.06582,0.2373c0.73268,0.03811 0.76905,-0.21305 1.47402,-0.78984c0.66859,0.06755 0.6045,-0.03811 1.07737,0.29965l-0.09353,0.18014l0.06755,-0.26501l-0.40531,0.3343c2.54619,0.11605 2.70208,0.58372 4.92956,1.53637c0.33776,0.1455 2.10277,-0.15762 2.75058,0.3291l-0.43303,0.13164l0.03464,0.15069c1.16744,0.48672 2.44746,0.43476 3.60797,0.80023c1.57102,0.49365 1.28349,0.78118 2.98095,0.55081l0.17321,0.1836c-0.16455,0.07968 -0.31178,0.16455 -0.49365,0.20266c0.96998,0.53349 1.76328,0.15242 2.83025,0.10912c1.9209,-0.07968 1.14145,-0.08487 2.02656,0.9388c1.62644,-0.78291 3.99249,-2.02483 5.33487,-3.31871c0.58199,-0.74827 1.05658,-1.85335 1.71478,-2.50982c2.59642,-2.59122 4.71651,-5.24654 8.38164,-6.31871c0.19573,-0.05716 3.72402,-2.46998 4.03406,-2.7679c3.68591,-3.53868 3.0918,-9.85912 3.59758,-14.56472c0.17841,-1.58366 0.51443,-2.39221 0.51617,-4.072l0.38279,0.31022c1.16224,-0.57402 0.99076,-4.90445 0.44515,-5.9754c-0.96824,-1.89838 -2.18591,-2.46374 -4.04446,-3.24336c-1.44284,-0.6052 -1.85855,-0.04157 -3.20092,0.15953c-1.09815,-0.07794 -3.31871,-0.57055 -4.32506,-0.17685c-0.81236,0.31853 -1.78753,0.39094 -2.33487,0.95889l-0.13337,-0.06721c0.3239,-0.53834 1.34758,-1.55387 1.84122,-2.02898z" fill-opacity="0.7098" fill="#da5d15"/><path d="M33.57073,198.00866c0.09821,3.82448 1.07685,7.27483 -1.37269,10.80658c-1.42639,2.03002 -3.60606,3.40531 -6.05266,3.81755c-3.74758,0.6149 -7.94238,-1.11894 -10.98334,-3.24942c-4.07896,-2.85797 -6.98271,-8.37644 -7.74793,-13.26963c-1.31962,-8.43707 3.69554,-20.36605 10.26667,-25.8724c2.98614,-2.50202 6.9776,-4.10958 9.31975,-6.93274c2.15421,-2.59677 0.20681,-7.67719 -0.05993,-10.82875c-0.07725,-0.91334 -0.6795,-2.87234 -1.24625,-3.66391c-1.63736,-2.28672 -5.35029,-2.96796 -8.00889,-4.02246c-1.36526,-0.53834 -2.66234,-1.23585 -3.86427,-2.078c-3.73824,-2.64769 -5.84555,-6.67673 -6.7354,-11.1892c-1.72647,-8.75491 3.71579,-17.6787 8.31525,-24.67206c3.0914,-4.70075 14.12853,-15.73164 18.80243,-18.18915c1.66628,-0.87731 3.51582,-1.35017 5.39879,-1.38048c4.63545,-0.07673 6.32079,1.88435 11.71005,0.97084l0.25687,0.10566c0.32997,0.13389 0.50768,0.18256 0.84925,0.27281l0.10254,0.31299c-3.21253,3.37621 -8.69896,0.31282 -12.43978,0.04521c-0.92598,-0.06634 -3.86363,0.99596 -4.77471,1.39521c-0.63516,0.32685 -2.29936,1.08984 -2.76409,1.42552c-2.58378,1.86651 -9.1332,7.244 -10.97581,9.59151c-4.71885,4.62263 -9.13308,11.35133 -11.21813,17.31166c-3.33263,9.52673 -0.90734,20.57962 9.28528,24.13857c3.21045,1.12102 7.95987,1.08447 9.42471,4.63268c0.81045,1.81282 0.27125,4.10941 0.61472,6.03482c0.40185,2.25173 1.15237,4.66663 1.3552,6.94417c0.6511,7.31276 -9.67344,7.63095 -13.15237,11.87079c-2.6867,1.11738 -5.75498,7.05849 -6.82095,9.65837c-0.12106,0.29792 -0.23105,0.59931 -0.32976,0.90416l-0.12291,0.10219c-1.79352,5.41282 -2.04045,12.57679 0.63095,17.73499c1.98426,4.00289 5.37106,7.51905 9.64595,8.96536c3.84492,1.30254 9.0601,0.34815 10.24105,-4.09642c1.20433,-4.53291 -2.25052,-7.06005 -2.10762,-11.87182c1.09382,-1.14838 2.06536,-1.85162 3.78828,-1.75635c9.07725,0.50577 17.02968,8.56178 26.36969,7.55889c6.67015,-0.71536 13.01224,-12.39492 19.72344,-10.49827l0.08938,0.2858c-0.66876,0.95092 -1.21282,1.0739 -1.91796,1.82737c-3.61057,1.33718 -7.52165,4.18129 -10.0888,6.76039c-7.99192,8.02656 -15.80318,3.38279 -24.5851,-0.06409c-1.8944,-0.74307 -4.31588,-1.42725 -6.3776,-1.19515c-0.25393,0.02771 -0.75346,-1.18995 -1.48857,-0.81582c-0.93967,0.47633 -1.21957,0.99249 -1.12691,1.95901z" fill-opacity="0.41961" fill="#da5d15"/><path d="M33.57073,198.00866c1.11339,0.944 0.90883,0.9821 0.97275,2.36259c0.41328,-0.46767 0.2806,-0.4642 0.78014,-0.59065l0.1235,0.38279c2.378,0.41917 -0.18135,7.23672 -0.92408,8.57044c-1.47471,2.63279 -3.94885,4.55889 -6.86276,5.34353c-3.99249,1.11547 -8.36068,-0.29619 -11.9236,-2.23268c-4.92185,-2.67436 -8.49042,-8.13915 -10.00547,-13.4948c-1.24103,-4.38915 -0.84726,-11.07506 1.23972,-15.22344c0.19346,-0.38453 0.15395,-0.16282 0.31176,-0.66166c1.36247,-4.12067 4.023,-8.21882 6.78946,-11.55087c2.82002,-3.39682 7.06053,-5.19544 10.11544,-8.24636c0.76923,-0.76819 1.64532,-2.68129 1.54503,-3.83661c-0.06443,-0.75883 -0.1455,-1.51611 -0.24284,-2.27148c-1.45358,-10.78857 -6.35889,-7.53915 -13.53281,-13.05104c-3.9985,-3.07223 -6.53196,-8.01443 -7.10562,-12.97413c-0.96438,-7.27067 1.90098,-13.70508 5.63932,-19.69867c3.06627,-4.91622 6.11555,-9.48551 10.43051,-13.4399c1.10387,-1.01155 2.50843,-2.92413 3.66824,-3.76645c2.88897,-2.09792 5.31617,-4.69659 8.44105,-6.44376c5.83372,-3.65421 9.95092,-0.7041 15.82361,-0.7817c4.18476,-0.05543 6.97032,-2.20271 11.7944,-0.8858c5.32535,1.45393 9.92061,4.61848 15.48326,4.80901c3.78395,-0.14688 9.72696,-1.3474 13.19983,-2.70624c7.32679,-2.86645 12.32512,-2.96726 18.72887,2.18505c1.11565,0.89792 6.58891,6.0149 6.73632,7.39763l-0.2683,0.05664l-0.11137,-0.08695l-0.33274,0.47027c-1.09036,-0.10964 -3.83176,-1.56513 -5.45577,-1.99833c-1.51888,-1.69209 -2.58533,-2.62223 -4.3351,-3.96963c-0.25652,-0.6433 -2.68476,-2.33158 -3.4332,-2.66952c-4.1489,-1.87292 -7.41305,-0.06963 -11.34042,1.28886c-2.00699,0.69423 -4.03285,1.08568 -5.94734,1.54659c-5.76703,1.38863 -9.05924,0.91715 -14.28135,-1.88643c-0.78585,-0.42177 -2.67073,-0.99301 -3.74913,-1.50433c-6.31507,-2.9948 -8.19579,-2.34076 -14.22973,-0.19521c-5.38926,0.91351 -7.0746,-1.04758 -11.71005,-0.97084c-1.88297,0.03031 -3.73251,0.50318 -5.39879,1.38048c-4.6739,2.45751 -15.71103,13.48839 -18.80243,18.18915c-4.59946,6.99336 -10.04172,15.91715 -8.31525,24.67206c0.88985,4.51247 2.99716,8.54151 6.7354,11.1892c1.20192,0.84215 2.49901,1.53967 3.86427,2.078c2.6586,1.0545 6.37154,1.73574 8.00889,4.02246c0.56674,0.79157 1.169,2.75058 1.24625,3.66391c0.26674,3.15156 2.21415,8.23199 0.05993,10.82875c-2.34215,2.82315 -6.3336,4.43072 -9.31975,6.93274c-6.57113,5.50635 -11.58629,17.43533 -10.26667,25.8724c0.76523,4.89319 3.66897,10.41166 7.74793,13.26963c3.04096,2.13048 7.23577,3.86432 10.98334,3.24942c2.44659,-0.41224 4.62627,-1.78753 6.05266,-3.81755c2.44954,-3.53176 1.4709,-6.9821 1.37269,-10.80658z" fill-opacity="0.1098" fill="#da5d15"/><path d="M149.54117,113.10987c1.0746,-0.86952 1.86184,-0.31161 1.91952,-1.99157c-0.51236,-0.88181 -0.71397,0.05179 -1.92367,-0.57506l0.04261,-0.24111c2.17275,-0.3388 2.46807,-0.48707 4.30479,-1.606c2.32985,-1.41928 4.85872,-2.83008 7.63822,-3.00294c6.85358,-0.42644 12.68695,4.64394 19.66039,4.44544c6.22171,-0.07673 9.12125,-3.42523 14.88568,-4.36628c5.04042,-0.82292 8.79215,3.47009 13.32506,3.4817c4.67148,0.01212 8.49076,-4.12864 13.70612,-3.44948c7.03233,0.91576 14.96363,8.98528 21.72055,8.70572c4.52079,-0.18724 8.30196,-7.65935 13.54157,-8.65479c4.49827,-0.85445 7.15878,0.54544 11.08891,2.60508c1.14665,0.60087 2.33487,1.0739 3.4157,1.76882c-0.7933,0.1765 -0.93014,0.07136 -1.44457,0.58666l0.08141,0.31923c0.86259,0.47754 1.85855,0.59151 2.77829,0.95785c6.83141,2.71888 17.00577,0.13736 16.3112,10.90497l-0.27367,-0.32338l-0.01905,-0.15277c-0.24769,-1.81126 -0.71016,-4.32558 -2.42494,-5.31288c-0.44688,-0.25722 -3.7015,-1.14059 -4.12067,-1.04463l0.23903,0.35699l-0.09527,0.07136c-0.94919,-0.84682 -1.58661,0.24682 -2.32621,0.10012c-4.98326,-0.98868 -9.65127,-3.70618 -14.31755,-5.61305c-1.51732,-0.61975 -2.87702,-0.88285 -4.27309,-1.26236c-0.84527,-0.29099 -1.94861,-0.45104 -2.46478,-0.84908c-5.59815,0.20906 -6.82448,4.60583 -10.29042,8.14867c-5.04561,5.15958 -8.13915,-2.06016 -10.34238,-2.63245c-1.04446,0.26432 -1.48788,1.36559 -2.35739,1.87431c-1.99018,-1.23152 -5.33661,-2.27789 -7.25577,-3.52448c-1.22806,-1.17835 -4.0358,-3.13857 -5.50982,-3.86467c-4.67841,-2.30439 -7.66109,0.93551 -11.61547,2.40052c-4.6888,1.7373 -8.03002,-1.79099 -11.75404,-3.85982c-0.62529,-0.34729 -1.09469,-0.16542 -1.75635,0.07742c-1.34758,-0.10791 -3.09527,-0.23487 -4.42552,0.07569c-5.52194,1.28886 -7.41686,4.00583 -13.6403,4.06923c-8.27598,0.08418 -12.5709,-5.16062 -20.56524,-4.25906c-4.82338,0.54388 -8.43239,5.56507 -11.46288,5.63609z" fill-opacity="0.12941" fill="#da5d15"/><path d="M114.88129,101.92379c0.7765,0.38972 2.26749,0.98522 3.00779,0.25185c0.02217,-0.19001 0.03863,-0.34313 0.05214,-0.53522l-0.50283,-0.26674c0.36963,-0.17979 0.72748,-0.21946 1.1321,-0.29636l-0.49763,-0.17408c0.02875,-0.0821 1.4858,-1.43227 1.99659,-2.25294c1.40577,-2.25883 5.2713,-5.04908 7.86721,-5.53043c10.5168,-1.95017 11.14573,6.80058 15.06305,13.62714c1.14873,2.00179 3.66686,3.42575 4.73314,5.41559c0.43199,0.67102 1.01709,0.80837 1.80831,0.94729c3.03048,-0.07102 6.63949,-5.09221 11.46288,-5.63609c7.99434,-0.90156 12.28926,4.34324 20.56524,4.25906c6.22344,-0.06339 8.11836,-2.78037 13.6403,-4.06923c1.33025,-0.31057 3.07794,-0.1836 4.42552,-0.07569c0.97517,0.41155 3.27021,1.47194 3.67032,2.44053c-0.1455,0.26172 -0.10912,0.331 -0.39492,0.38054c-2.00404,0.34694 -5.12529,-1.26409 -7.29734,-0.81617c-1.34758,0.27783 -3.72748,1.59457 -5.07333,2.15768c-0.86432,0.36184 -2.153,-0.41224 -2.61547,-0.19296c-1.76674,0.83609 -2.78349,1.39313 -4.73383,1.74094c-7.07737,1.26132 -11.90058,-2.65497 -18.38227,-3.97569c-1.22581,-0.24977 -2.3948,0.01749 -3.6414,0.08868c-0.4448,0.21166 -0.57662,0.26172 -1.05831,0.3433c-4.2724,0.72194 -5.68095,5.04682 -9.31472,6.5321c-1.42517,0.58233 -2.93903,-1.57396 -4.20727,-1.59475c0.11311,0.00173 -1.93736,1.57448 -2.0612,1.68863c-1.43297,-3.90693 -3.91871,-6.50144 -5.94128,-9.997c-1.57569,-2.72321 -2.00889,-8.12512 -5.68822,-9.30537c-2.79249,-2.80566 -7.59734,-1.19706 -9.34642,1.91778c-0.74394,1.32488 -2.46547,4.82113 -3.78551,5.43378c-1.23689,-0.64226 -1.62627,-0.76611 -2.98285,-0.72436c-0.93499,0.02875 -1.27794,0.04417 -1.91467,-0.57939c-0.17269,-0.78152 -0.22465,-0.52136 0.0149,-1.20242z" fill-opacity="0.32549" fill="#da5d15"/><path d="M51.3123,88.25543c6.03395,-2.14555 7.91467,-2.7996 14.22973,0.19521c1.07841,0.51132 2.96328,1.08256 3.74913,1.50433c5.22211,2.80358 8.51432,3.27506 14.28135,1.88643c1.91449,-0.46091 3.94036,-0.85237 5.94734,-1.54659c3.92737,-1.35849 7.19151,-3.16178 11.34042,-1.28886c0.74844,0.33793 3.17667,2.02621 3.4332,2.66952c-0.44255,0.37864 -0.8858,0.58389 -1.46328,0.60052c-1.381,-0.78118 -1.46189,-0.45087 -2.73204,-0.7959c-3.34088,-0.90762 -5.39931,1.45687 -8.04786,2.6463c0.3,-0.36391 0.28632,-0.19729 0.26311,-0.52379c-0.3892,0.1739 -0.77546,0.35439 -1.15878,0.54111l0.72298,-0.81114l-0.1552,-0.03516c-0.51028,0.40393 -1.02973,0.79625 -1.55785,1.17679c0.06894,-0.15104 0.25635,-0.35855 0.36963,-0.50075l-0.49885,0.16282l0.07136,-0.02304c-1.15375,0.21426 -4.32419,0.70029 -5.21986,1.1418l-0.86155,0.41674l-0.07673,-0.1093l0.63551,-0.90485c-0.66339,0.13961 -1.05814,1.23395 -1.77454,1.41738c-1.19307,0.30537 -3.37777,1.06368 -4.62904,1.08204c-0.13805,0.00191 -0.37621,-0.63637 -1.05935,-0.61472c-0.5056,-0.00883 -2.2448,0.40254 -2.59729,0.16195c-2.27997,-1.55647 -4.27327,-2.60612 -6.89498,-3.569c-0.91126,-0.33464 -1.61778,-0.94936 -2.7601,-1.40023c-1.57413,-0.62148 -3.87454,-1.1198 -5.5183,-1.69452c-2.07748,0.17079 -8.49267,2.10779 -10.27154,2.82696c-0.34452,-0.07552 -0.59671,-0.12281 -0.94555,-0.17252c-0.12107,0.10531 -0.77182,0.67431 -0.80421,0.67985c-0.68089,0.11744 -3.45017,-1.70266 -4.18025,-1.88851c-1.43903,-0.36651 -5.95583,0.30069 -6.72436,0.09804l0.09579,-0.09059c-0.3142,-0.01645 -0.47858,-0.03412 -0.78915,-0.08418l-0.42471,-1.02229c0.91109,-0.39925 3.84873,-1.46155 4.77471,-1.39521c3.74082,0.26761 9.22725,3.331 12.43978,-0.04521l-0.10254,-0.31299c-0.34157,-0.09024 -0.51928,-0.13891 -0.84925,-0.27281z" fill-opacity="0.72549" fill="#da5d15"/><path d="M199.6351,107.58793c0.66166,-0.24284 1.13106,-0.42471 1.75635,-0.07742c3.72402,2.06882 7.06524,5.59711 11.75404,3.85982c3.95439,-1.46501 6.93707,-4.70491 11.61547,-2.40052c1.47402,0.7261 4.28176,2.68632 5.50982,3.86467c-2.58256,0.76247 -5.47171,-1.68828 -8.23614,-1.36178c-0.5179,0.06132 -1.2246,0.39232 -1.87413,0.48603c-0.22344,-0.21097 -0.38972,-0.35681 -0.62875,-0.55046c-0.50924,0.22881 -1.19688,0.46594 -1.23326,1.07148c0.35335,0.19226 0.36721,0.14619 0.62009,0.42558c-0.2373,0.38072 -0.49018,0.63204 -0.78984,0.96201l-0.42436,0.01334c-1.57794,1.73661 -2.83372,2.18799 -5.03695,2.73118l0.57679,-0.2612c-0.80196,0.22206 -1.46882,0.3802 -2.28118,0.55167c-2.22575,-1.57275 -2.17206,0.94105 -4.74596,-0.66651l-0.07275,-0.33118c0.52136,-0.01247 0.58891,0.02027 1.07564,-0.18759l-0.10912,-0.22933l0.29273,-0.12766l-0.22171,-0.48066l0.16282,-0.15225l0.48152,0.3362l0.01212,-0.18707c-0.91628,-0.4888 -1.89319,-0.41674 -3.18707,-0.9045l-0.19226,-0.07448l-0.25115,0.36236c-1.27829,-0.66998 -0.99423,-1.45583 -1.83776,-1.91518c-2.05947,-1.12067 -4.36316,-0.98695 -6.59238,-0.67032c-0.58199,0.08279 -1.10162,-0.22206 -2.13395,-0.03915c-0.84353,0.73129 -0.62875,0.5321 -1.61952,0.79763c-0.24249,0.43303 -0.35335,0.44065 -0.2858,0.81634l0.67032,-0.46715c0.96478,0.31334 1.08949,-0.27887 1.80658,-0.12107c-0.26674,0.36928 -0.46074,0.43562 -0.85566,0.65647l-0.14896,0.08227c0.32217,-0.03256 0.49192,-0.04521 0.81582,-0.04226c-0.32564,0.47598 -1.70958,0.9052 -2.26386,0.88406l0.13164,-0.32633c0.72229,-0.12627 0.653,-0.09786 1.01848,-0.69734l-0.32217,-0.0414c-0.63915,0.4235 -1.91397,1.05866 -2.6761,1.50797l-0.63222,-0.32182c-0.72748,0.98764 -1.13972,0.44775 -2.10797,0.98054c-0.41397,0.22846 -1.31986,1.29804 -1.76674,1.45774c-2.20843,0.78915 -4.43764,0.15433 -6.6149,0.34001c0.37587,-0.03204 -1.06351,0.31645 -0.82968,0.25808l-0.1403,-0.11553c0.39838,-0.13649 0.67898,-0.20127 1.01848,-0.45641c-0.74307,0.14636 -1.35277,0.0052 -2.05947,-0.21617l0.06062,-0.14602l0.57679,-0.07102l-0.7933,-0.82119l0.09007,-0.15935l0.85046,0.27887c-0.53176,-0.92217 -3.35508,-1.35277 -4.35987,-1.50485l0.08505,-0.03326c-0.44671,-0.02356 -2.17344,-0.07379 -2.50167,-0.22777c-1.74336,-0.81859 -7.33025,-3.89394 -9.18482,-2.35098c-0.19244,-0.50751 -0.33759,-1.58279 -0.43822,-2.16357c1.24659,-0.07119 2.41559,-0.33845 3.6414,-0.08868c6.4817,1.32073 11.30491,5.23701 18.38227,3.97569c1.95035,-0.34781 2.96709,-0.90485 4.73383,-1.74094c0.46247,-0.21928 1.75115,0.55479 2.61547,0.19296c1.34584,-0.56311 3.72575,-1.87985 5.07333,-2.15768c2.17206,-0.44792 5.2933,1.16311 7.29734,0.81617c0.2858,-0.04954 0.24942,-0.11882 0.39492,-0.38054c-0.40012,-0.96859 -2.69515,-2.02898 -3.67032,-2.44053zM212.61547,115.9765c0.7552,-0.0653 0.90242,-0.02286 1.48441,-0.44861l0.06928,-0.1985l-0.35855,-0.01697c-0.52656,0.15745 -1.02887,0.256 -1.44977,0.60208c0.08487,0.02061 0.16975,0.0414 0.25462,0.06201z" fill-opacity="0.75294" fill="#da5d15"/><path d="M213.81062,115.31241l0.35855,0.01697l-0.06928,0.1985c-0.58199,0.42575 -0.72921,0.38331 -1.48441,0.44861c-0.08487,-0.02061 -0.16975,-0.0414 -0.25462,-0.06201c0.4209,-0.34607 0.92321,-0.44463 1.44977,-0.60208z" fill-opacity="0.79216" fill="#da5d15"/><path d="M21.56657,101.40433c0.17927,0.92182 -0.05751,1.22581 -0.46282,2.11923c3.46264,-0.09804 4.08984,-3.69319 8.42546,-5.28845c-2.22263,2.37211 -4.66212,4.66195 -6.9582,7.06576c-0.29203,-0.06651 -0.30831,-0.06894 -0.57038,-0.16039l-0.34919,0.30554l0.08297,0.14342l0.52829,0.10531l-0.3362,0.24388c-0.81288,-0.22119 -0.68314,-0.40618 -1.58331,-0.419c0.31871,-0.30745 0.72038,-0.43857 1.13193,-0.61957c-0.45069,-0.00156 -1.38585,-0.10687 -1.62506,0.13025c-4.69509,4.80381 -9.12618,11.68961 -9.38986,18.56657c-0.07526,1.96316 0.19557,4.03372 0.06951,6.02408c0.01836,-0.28995 0.92196,3.90814 0.77073,3.58095c0.83373,0.58077 0.8074,-0.12991 1.3408,0.39579c0.59174,0.59307 0.51563,1.43712 0.84333,2.19786c0.2744,0.63707 1.65352,0.86709 1.92875,1.19619c1.33912,1.60098 0.33371,2.27737 2.83057,2.45439c0.28164,0.32217 0.56692,0.63533 0.84509,0.96114c1.43366,1.67841 6.01628,0.81721 7.45115,2.0198l0.00104,-0.0026c-0.85497,0.57575 -1.49654,0.20976 -2.69255,0.53158c0.58129,0.3194 0.26068,0.05716 0.6388,0.15225c3.25185,0.81703 5.55641,2.99983 5.92535,6.43337c0.03274,0.30433 0.72419,1.05554 0.62338,1.4877c-0.03776,1.20883 -0.44567,2.85814 0.02789,3.98661l0.28147,0.12731l0.12488,-0.51773c0.29671,0.40393 0.11207,0.35577 0.15883,0.84752l1.09244,1.05935c0.2948,2.10416 0.97985,3.83401 0.85064,5.99792c-0.01282,0.21599 -0.10046,0.38539 -0.16871,0.54319l-0.26345,0.11882c-0.10046,-0.18655 -0.19642,-0.35144 -0.32962,-0.51686c-0.08297,-0.58355 -0.26709,-2.42997 -0.55878,-2.78678c-0.922,2.19786 0.53886,3.41103 -2.17361,6.38522l-0.0336,0.3433l0.47771,0.01316c0.25497,-0.26986 0.23037,-0.28718 0.34936,-0.64677l0.1765,0.04659l0.10687,0.61334c0.40566,-0.33967 0.42748,-0.38557 0.73684,-0.78828c0.40912,0.01351 0.52846,-0.02027 0.89134,0.16645c-0.5709,2.20774 -9.44515,4.88314 -11.519,6.57766c-1.66316,-1.13435 -1.52979,-1.00652 -3.38816,-0.26241c3.47893,-4.23984 13.80346,-4.55803 13.15237,-11.87079c-0.20283,-2.27754 -0.95335,-4.69244 -1.3552,-6.94417c-0.34348,-1.9254 0.19573,-4.222 -0.61472,-6.03482c-1.46484,-3.54821 -6.21426,-3.51166 -9.42471,-4.63268c-10.19262,-3.55895 -12.61791,-14.61184 -9.28528,-24.13857c2.08505,-5.96033 6.49928,-12.68903 11.21813,-17.31166z" fill-opacity="0.76078" fill="#da5d15"/><path d="M237.52656,116.35895c0.86952,-0.50872 1.31293,-1.60999 2.35739,-1.87431c2.20323,0.57229 5.29677,7.79203 10.34238,2.63245c3.46594,-3.54284 4.69226,-7.93961 10.29042,-8.14867c0.51617,0.39804 1.61952,0.55808 2.46478,0.84908c-1.33891,3.78741 -5.16686,-0.0317 -7.35797,3.46195l0.0433,0.25895c1.2194,0.39094 1.0358,-0.89758 2.0612,-1.01137c0.35855,0.45918 0.35335,0.50352 0.50924,1.0791l0.43303,-0.13337l0.08141,0.91905l-0.24423,0.13112c-1.33545,0.7351 -3.4157,2.13655 -4.14319,3.5224l-0.50751,-0.04625c-0.16455,0.35248 -0.14203,0.33776 -0.13337,0.73199l0.12471,0.18984l-1.48614,0.5593c0.25635,0.2709 0.2321,0.26068 0.57506,0.40462c-0.67552,0.25878 -0.82448,0.35491 -1.52945,0.38747c-0.32737,0.53106 -0.50751,0.83349 -0.77079,1.39573c-0.11432,-0.40167 -0.097,-0.76403 -0.10566,-1.18233c-0.36547,0.41692 -0.28753,0.18741 -0.31524,0.68072l-0.0052,-0.00398l0.02945,0.11657l-0.11952,0.08262l-0.34988,-0.57471l0.09353,0.08054c-0.15416,0.33828 -0.10219,0.27714 -0.08487,0.6317c-0.56986,0.47945 -0.7933,0.63222 -1.43591,1.00878c-0.05889,-0.27818 -0.01212,-0.16611 -0.12644,-0.34919c-0.40878,0.27471 -0.87818,0.69232 -1.29734,0.71033c0.01386,-0.41501 -0.00866,-0.21617 0.42783,-0.65196c-0.39665,0.02858 -0.63395,0.32841 -0.95092,0.60935c-0.67379,-0.17719 -2.70901,-0.6776 -3.13337,-1.08845c1.37009,0.00017 2.57044,0.40375 3.92321,-0.03187c0.18014,-0.67154 0.01732,-0.43199 0.67725,-0.85531l-0.09873,-0.15035c-0.54215,0.20699 -2.13741,-0.08643 -2.9463,-0.02252c-3.14376,0.24856 -5.02656,-2.79163 -7.29215,-4.319z" fill-opacity="0.76863" fill="#da5d15"/><path d="M144.52535,116.38077c0.12385,-0.11415 2.17431,-1.68689 2.0612,-1.68863c1.26824,0.02079 2.7821,2.17708 4.20727,1.59475c3.63378,-1.48528 5.04232,-5.81016 9.31472,-6.5321c0.4817,-0.08158 0.61351,-0.13164 1.05831,-0.3433c0.10064,0.58077 0.24579,1.65606 0.43822,2.16357c-1.12916,-0.16697 -2.70191,0.09579 -3.40774,1.08066l0.09648,0.27575l0.80387,0.10774l0.04746,0.21478c-0.29844,0.28251 -0.59463,0.56726 -0.88857,0.85445c0.65404,-0.00312 1.66559,-0.22431 2.00352,-0.07171c-0.2858,0.20144 -0.12973,0.13805 -0.46645,0.19486l0.06305,0.15918l0.43666,-0.09405l0.09319,0.10756c-1.28609,0.64521 -1.31328,0.88736 -2.05375,2.09221c-0.27973,0.4552 -1.32523,-0.73216 -2.13118,0.09561c0.13788,0.45398 0.19053,0.29654 0.04278,0.58736c-0.8515,-0.04088 -1.3254,-0.16109 -1.73816,0.78516l-0.33551,-0.02096l-0.07517,0.17875l0.96409,0.43857c-0.42662,0.28874 -1.02558,0.49001 -1.60306,0.88251l0.13233,-0.00329c0.44065,-0.00831 0.37794,-0.05785 0.74515,0.12038l-0.21911,0.1642c-0.51842,0.3918 -1.29925,1.19688 -1.80139,1.26911c-0.03378,-0.19936 -0.0847,-0.62564 -0.16507,-0.78308l-0.31507,1.25318c-0.24475,-0.419 -0.16386,-0.25583 -0.21738,-0.78118l-0.27385,-0.00849l-0.10393,0.30381l-0.43251,-0.25254l0.06443,-0.25185c0.25462,-1.01259 0.12281,-0.74203 0.54232,-1.63147c-2.30473,-0.16334 -3.59913,1.47506 -6.62442,-1.76813c-0.23193,-0.24873 -0.2489,-0.33811 -0.26276,-0.69336z" fill-opacity="0.86667" fill="#da5d15"/><path d="M108.62858,95.64509c1.62402,0.4332 4.36542,1.88868 5.45577,1.99833c0.67639,0.76403 0.51028,0.9168 0.74428,1.94636l0.17494,0.77858c0.14861,0.66634 0.06339,0.88493 -0.12229,1.55543c-0.23955,0.68106 -0.18759,0.4209 -0.0149,1.20242c0.63672,0.62356 0.97968,0.60814 1.91467,0.57939c1.35658,-0.04174 1.74596,0.0821 2.98285,0.72436c-0.2004,0.21374 -0.48152,0.49452 -0.65266,0.71432c-1.05104,1.35104 -2.38216,1.4004 -3.42731,2.66293c-2.72027,0.69734 -5.92067,-3.95127 -5.43048,-6.49452c0.37673,-1.9545 -0.82777,-3.92027 -1.62488,-5.66761z" fill-opacity="0.43137" fill="#da5d15"/><path d="M35.30647,90.3873l0.42471,1.02229c-1.15202,0.19954 -1.96455,0.96582 -2.76218,1.7877l-0.01542,0.12038c1.14596,-0.98764 3.20508,-1.17159 3.0918,0.4746c-1.4638,1.99105 -4.42379,2.20912 -6.51617,4.44284c-4.33562,1.59527 -4.96282,5.19042 -8.42546,5.28845c0.40531,-0.89342 0.64209,-1.1974 0.46282,-2.11923c1.84261,-2.34752 8.39203,-7.725 10.97581,-9.59151c0.46472,-0.33568 2.12893,-1.09867 2.76409,-1.42552z" fill="url(#color-2)"/><path d="M119.76391,104.42997c1.32003,-0.61264 3.04157,-4.10889 3.78551,-5.43378c1.74908,-3.11484 6.55393,-4.72344 9.34642,-1.91778c-2.05895,0.48516 -5.40242,-1.08256 -6.98539,1.74942c0.34486,0.17771 0.23037,0.12402 0.63066,0.18274c0.17789,0.62234 -0.06409,0.794 -0.30849,1.41478c-0.42229,1.07321 -3.30606,1.67771 -3.13545,2.50012c0.07275,0.35023 -0.32356,0.90641 -0.53938,1.23741l0.15572,0.14948l0.71137,-0.08227l0.09821,0.16178l-0.19642,0.19105c-0.58233,0.57177 -0.85323,0.78533 -1.10352,1.58349l0.03724,0.37275l0.50387,0.0802c-1.43002,1.31622 -2.7511,3.10947 -4.82719,3.38262l-0.29861,-0.30017c0.23314,-0.27627 0.44013,-0.51911 0.65473,-0.8127l-0.51097,0.04988l-0.12367,-0.29775c0.33482,-0.69267 0.31282,-0.51461 1.05312,-0.98539l-0.10791,-0.01559l0.11449,0.02875l-0.23712,0.1138c-0.76334,-0.41969 -1.52148,0.22898 -2.79717,0.02442c1.04515,-1.26253 2.37627,-1.31189 3.42731,-2.66293c0.17113,-0.2198 0.45225,-0.50058 0.65266,-0.71432z" fill-opacity="0.76863" fill="#da5d15"/><path d="M17.87598,172.33701c1.85837,-0.74411 1.725,-0.87194 3.38816,0.26241c-0.66062,1.09746 -2.83632,3.68522 -3.03291,4.14076l0.12038,0.12298l0.80751,-0.50404c-0.45624,0.85739 -2.26458,3.06236 -2.95474,4.06871l-0.1275,-0.02079l-0.10398,-0.39492c-0.38946,0.11952 -0.24225,0.05196 -0.55585,0.35855l-0.13943,-0.14376l-0.41264,0.32737l-0.34507,-0.08141c-0.173,-0.50231 -0.00977,-0.78118 0.15975,-1.29734l0.03837,-0.02425c0.21887,-0.51443 0.74314,-1.53984 0.68829,-2.02829c-1.28577,0.49018 -1.63665,1.4567 -2.31547,2.45439c-1.51185,2.22055 -1.59566,3.83141 -2.28913,6.15242c-0.17023,-0.58025 -0.17612,-2.04388 -0.19935,-2.72806l0.12291,-0.10219c0.09871,-0.30485 0.2087,-0.60624 0.32976,-0.90416c1.06597,-2.59988 4.13425,-8.54099 6.82095,-9.65837z" fill-opacity="0.8902" fill="#da5d15"/><path d="M170.60473,197.92552l-0.45208,-0.57333c0.73614,-0.42783 6.78499,-0.12991 7.82945,0.22517c-1.9261,0.61663 -5.30785,0.26501 -7.37737,0.34815z" fill-opacity="0.73726" fill="#da5d15"/><path d="M144.11207,193.29388c1.77003,-0.18187 1.00202,-1.38048 2.83147,-0.15069c1.65831,0.02425 1.36611,-0.27194 2.56801,1.07217c-1.78943,-0.4157 -3.58406,-0.63915 -5.39948,-0.92148z" fill-opacity="0.7451" fill="#da5d15"/></g></svg></svg>