<svg id="svg" version="1.1" viewBox="0 0 300 300" width="300" height="300" xmlns="http://www.w3.org/2000/svg"><svg xmlns="http://www.w3.org/2000/svg"><defs><clipPath id="clip-1"><rect x="0" y="0" transform="scale(0.14648,0.14648)" width="2048" height="2048" fill="none"/></clipPath></defs><g clip-path="url(#clip-1)" fill="none" fill-rule="nonzero" stroke="none" stroke-width="1" stroke-linecap="butt" stroke-linejoin="miter" stroke-miterlimit="10" stroke-dasharray="" stroke-dashoffset="0" font-family="none" font-weight="none" font-size="none" text-anchor="none" style="mix-blend-mode: normal"><path d="M183.97119,52.33315c1.29785,-3.3082 5.47998,-14.68169 8.35107,-16.02905c0.26514,-0.12451 0.55811,-0.18853 0.83203,-0.07573c0.23877,0.09814 0.34277,0.18149 0.54346,0.32432c0.96826,0.69155 2.8125,0.31099 3.98877,0.55269c1.42383,0.29282 2.83301,1.05776 4.27441,1.21436c1.18799,0.12935 2.41992,-0.08643 3.60059,0.12187c2.07861,0.36621 4.229,1.04839 6.26807,1.60957c3.16406,0.871 6.26514,1.93169 9.41455,2.83271c4.48242,1.28232 9.50977,2.57329 13.85596,4.19326c1.35791,0.50566 2.54736,1.32612 3.87744,1.88247c3.5127,1.46997 7.06055,2.8207 10.55127,4.35894c1.08252,0.4771 2.07568,1.22329 3.1582,1.6582c0.43506,0.17505 0.89355,0.27393 1.32129,0.47095c1.67285,2.25117 3.4292,5.19023 5.06396,7.57749c1.78125,2.60405 3.73389,5.53008 5.39063,8.2021c1.19385,1.92612 2.26465,4.64312 3.42773,6.65801c1.61279,2.79155 3.42188,5.54897 4.99072,8.34961c1.25537,2.2415 2.22363,5.29512 3.3501,7.546c1.78857,3.57217 3.53174,7.07109 5.0127,10.79531c0.4043,1.01646 1.17334,2.24956 1.57617,3.26514c0.3501,0.88184 0.49658,2.01431 0.85547,2.95269c5.09619,13.00195 9.13037,26.3959 12.06299,40.04971c0.15088,0.71484 0.16846,2.41699 0.33691,2.96191c0.92578,2.91943 1.28906,5.8916 1.81201,8.89014c0.17285,0.99609 -0.12598,3.36182 0.09375,4.06934c1.16748,3.78223 0.44531,7.54102 0.67676,11.4375c0.07617,1.28174 0.6167,2.55615 0.67383,3.84668c0.00586,3.87305 -0.08936,7.76514 -0.01172,11.63965c0.01611,0.84521 -0.10107,0.86865 0.67969,1.23486v21.16846l-0.5083,0.23584c-0.34424,0.68994 -0.19482,7.53076 -0.19482,8.69385c-1.01074,1.18799 -2.91064,2.27783 -4.25391,3.23584c-5.8916,4.2041 -11.74512,8.60889 -17.93701,12.35889c-4.18213,2.53271 -9.03809,4.47656 -13.44287,6.61084c-2.6748,1.29639 -5.15039,2.68066 -7.76953,4.01367c-1.98926,0.94629 -4.12354,1.5791 -6.11865,2.50488c-6.04248,2.80225 -12.27393,5.2793 -18.34424,8.00977c-1.47656,0.66357 -6.59619,2.18408 -7.93945,1.7959c-2.2002,-0.91699 -5.18994,-4.62598 -6.38965,-6.69434c-1.95264,-3.36768 -4.25244,-6.59766 -6.1084,-9.97559c-1.63623,-2.97656 -2.92969,-6.13623 -4.63477,-9.03076c0.43799,-0.7002 0.89502,-1.22021 1.62012,-1.6377c2.83447,-1.63477 6.26953,-2.36426 9.31348,-3.53906c2.17529,-0.83936 11.97803,-5.41846 12.81592,-7.16455c0.19189,-0.3999 0.09961,-0.83936 -0.09375,-1.21582c-0.80566,-1.56445 -2.79932,-2.59863 -4.38135,-3.15674c-3.35596,0.86426 -5.54297,2.77295 -8.53564,3.7998c-8.65137,2.9707 -17.22803,6.2124 -26.11377,8.47559c-1.68311,0.4292 -3.5332,0.38672 -5.29248,0.85107c-1.47217,0.38818 -3.20361,1.05176 -4.69043,1.5c-2.8916,0.01611 -5.7583,0.23584 -8.62793,0.71631c-1.24512,0.21973 -3.5127,-0.14062 -4.65527,0.11133c-4.48682,0.9873 -9.08496,0.63721 -13.72119,0.63281l-18.31772,0.01172c-3.45498,0.00586 -5.27593,-0.44092 -8.66147,-1.04443c-2.01958,-0.35889 -4.1064,-0.47168 -6.1689,-0.95508c-0.92417,-0.2168 -3.24829,0.01465 -4.14551,-0.22559c-2.55776,-0.68408 -5.13208,-1.46631 -7.68105,-2.18408c-1.64956,-0.46436 -3.82266,-0.57568 -5.36191,-1.04004c-4.3459,-1.31104 -8.75347,-2.91943 -13.0103,-4.4209c-3.87759,-1.36963 -13.23105,-4.28174 -15.99507,-7.03564c-1.48638,1.13672 -4.18345,4.00342 -5.60596,5.44336c3.26836,1.18066 3.02563,2.08447 5.39663,3.2417c4.31865,2.07568 8.81001,3.78076 13.12632,5.84473c1.24541,0.59619 4.80249,1.66113 5.2377,2.92383c-0.04424,1.88672 -2.86187,6.55371 -3.77666,8.50635c-0.21973,0.46875 -1.92568,2.83447 -2.33628,3.49951c-2.53579,4.10303 -5.30742,8.15625 -8.00684,12.15674c-0.41616,0.6167 -1.32598,1.68311 -2.08652,1.75928c-1.39731,0.14063 -2.52524,-0.58008 -3.80815,-0.89648c-1.32949,-0.32666 -2.66177,-0.56104 -3.99419,-0.90967c-3.46143,-0.89648 -6.82764,-2.12695 -10.05176,-3.67236c-1.05278,-0.49365 -2.21338,-1.59229 -3.19746,-1.94824c-6.4355,-2.38477 -12.37485,-5.52686 -18.66709,-8.27344c-7.17891,-3.1333 -13.71753,-7.89697 -20.51528,-11.73633c-4.83637,-2.88428 -9.96265,-6.58447 -14.03839,-10.43115c-1.54891,-1.46338 -1.66189,-10.98633 -1.68355,-13.30078c-0.00405,-0.43359 -0.30852,-0.49512 -0.64667,-0.68262v-27.50977c0.14255,-0.06299 0.61234,-0.2124 0.64176,-0.36328c0.25449,-1.30957 -0.14537,-3.24902 0.07276,-4.51904c0.57929,-3.37207 0.8203,-6.3999 0.7101,-9.83789c-0.03893,-1.21436 0.50373,-2.896 0.5611,-4.14551c0.0007,-3.86865 0.99734,-7.40771 2.08049,-11.08008c0.22206,-0.75293 0.03598,-2.146 0.24754,-3.0293c2.14474,-8.95562 3.69038,-17.96323 6.83733,-26.65576c1.06718,-2.94785 1.76603,-6.3189 2.76876,-9.30425c1.44784,-4.52212 4.01351,-8.63452 5.76546,-13.0292c1.3979,-3.50669 3.22046,-6.80903 4.94575,-10.14668l4.74697,-9.22866c0.5937,-1.1272 1.05322,-2.42329 1.66348,-3.50405c3.3394,-5.91504 6.5606,-11.92896 10.37212,-17.56392c1.64106,-2.42607 4.28994,-6.4604 6.99243,-7.68794c3.47065,-1.57632 7.35029,-2.91592 10.96582,-4.1354c4.51699,-1.71284 8.86714,-3.27583 13.44551,-4.83164c2.56421,-0.87144 5.16328,-1.91982 7.79912,-2.70601c2.01665,-0.60146 4.26929,-0.99683 6.24272,-1.58613c3.3019,-0.98613 6.53452,-1.66509 9.9019,-2.41904c1.05615,-0.23643 2.47134,-0.25034 3.70664,-0.4875c2.38975,-0.43682 4.82183,-1.48242 7.28423,-1.01602c0.7519,0.14238 1.48784,1.9998 1.81377,2.63408c2.04492,3.97852 4.17744,8.91929 6.46274,12.70547c0.78545,-0.09243 1.87676,-0.22046 2.57358,-0.52441c3.3208,-1.448 6.64263,-0.85298 10.14258,-1.00781c1.12529,-0.0498 1.93374,-0.47769 3.02153,-0.63369c1.89067,-0.09185 3.79307,0.01377 5.68594,-0.01919c1.25171,-0.02183 2.45669,-0.6624 3.70503,-0.67632c7.26665,-0.08115 14.54106,-0.04863 21.80669,-0.02007c0.28857,0.00117 0.79834,0.32842 1.04883,0.45776c1.2832,0.31465 2.54736,0.16318 3.8877,0.32578c1.05762,0.12817 1.85889,0.29985 2.97803,0.48486c1.73584,0.29121 3.74414,-0.11646 5.39063,0.33911c-0.86865,-0.24023 0.9624,0.39858 0.36182,0.25737c1.31836,0.31069 2.77148,0.23013 4.10156,0.59282c1.12207,0.30571 2.09033,0.33413 3.23877,0.34995zM202.36816,190.43994c12.53174,0.12158 23.57959,-15.85693 23.68359,-27.4585c0.07324,-8.02002 -1.30078,-15.97705 -6.78516,-22.18872c-2.50049,-2.7 -5.67187,-5.9603 -8.68652,-7.96099c-4.0166,-1.91309 -9.93164,-2.60229 -14.26758,-2.27065c-6.5332,1.12397 -10.05615,3.77886 -14.625,8.3439c-3.71631,3.71309 -6.78223,8.17412 -8.3833,13.22637c-0.73096,2.30713 -1.07373,8.79639 -0.71777,11.17969c0.49072,3.29297 1.12793,6.2959 2.39063,9.375c0.36768,0.91553 0.58154,2.52979 1.05762,3.45557c0.98584,1.20996 3.29443,5.19287 4.43408,5.95166c1.64941,1.09863 4.25977,3.86133 5.53271,4.90576c1.86768,1.53076 7.4209,2.58252 9.8584,3.33252c0.96094,0.20801 5.37744,0.11426 6.5083,0.1084zM103.49121,191.14746c8.42798,0.07471 14.91401,-6.76025 19.05381,-13.46777c2.97729,-4.25391 4.22314,-8.93701 4.45327,-14.07568c0.32388,-7.23486 -1.63887,-16.80762 -6.86133,-22.17334c-4.20864,-4.32407 -7.01982,-8.26523 -13.14375,-9.29546c-3.60776,-0.60688 -5.98052,-1.55596 -9.93018,-0.83174c-7.71782,1.15225 -13.09951,6.34263 -17.93555,12.11411c-1.68032,2.00522 -3.70005,6.50918 -4.74316,9.01553c-0.40942,0.98291 -0.5877,3.71045 -0.80039,4.96143c-1.11328,6.51563 1.25449,13.64648 3.62666,19.63916c0.20757,0.52441 3.64834,5.42432 4.21099,5.75391c1.39819,0.82031 4.34312,4.03125 5.50122,4.87646c2.16079,1.57764 7.48257,2.72314 10.15049,3.40137c0.94878,0.18457 5.30947,0.08789 6.41792,0.08203z" fill="#5865f3"/></g></svg></svg>