<svg id="svg" version="1.1" viewBox="0 0 300 300" width="300" height="300" xmlns="http://www.w3.org/2000/svg"><svg xmlns="http://www.w3.org/2000/svg"><defs><clipPath id="clip-1"><rect x="0" y="0" transform="scale(0.25597,0.25597)" width="1172" height="1172" fill="none"/></clipPath></defs><g clip-path="url(#clip-1)" fill="none" fill-rule="nonzero" stroke="none" stroke-width="1" stroke-linecap="butt" stroke-linejoin="miter" stroke-miterlimit="10" stroke-dasharray="" stroke-dashoffset="0" font-family="none" font-weight="none" font-size="none" text-anchor="none" style="mix-blend-mode: normal"><path d="M135.8698,31.66305c0.92329,0.51246 1.20461,2.31988 1.2302,3.2785c0.51962,19.41015 -0.19633,38.95137 0.08422,58.3541c-0.64505,1.11425 -1.54044,2.22491 -2.64932,2.90145c-8.11664,4.95307 -16.47696,9.50452 -24.68217,14.30273c-10.41502,6.15563 -20.89659,12.19812 -31.44266,18.12671c-3.29872,1.84403 -6.5744,3.96809 -9.91971,5.66237c-7.05845,-3.85879 -14.03601,-7.86425 -20.92782,-12.01357c-4.22867,-2.49701 -8.16476,-4.66945 -12.35734,-7.3093c-5.12022,-2.86408 -17.61402,-9.25879 -21.45594,-12.67654c21.35918,-11.75171 43.29834,-25.09582 64.54177,-37.26681l33.49428,-19.31954c7.63592,-4.37585 16.74881,-9.33276 24.08447,-14.0401z" fill="#3bc9e5"/><path d="M163.79258,31.56527c1.87551,0.26032 7.54889,4.07765 9.64352,5.25998l50.46681,29.12304l62.9913,36.24164c-5.79778,4.65845 -13.81229,8.2866 -20.32167,12.38114c-2.2116,1.66792 -7.12116,4.07022 -9.74744,5.63575c-8.22031,4.90213 -15.79633,8.95085 -23.92398,14.11203c-3.33584,-1.53788 -7.63746,-4.2686 -10.92619,-6.12671c-6.04915,-3.41852 -12.0901,-6.87619 -18.15896,-10.2663c-2.67773,-1.4959 -5.38567,-3.63123 -8.09155,-5.1343c-7.65179,-4.25094 -15.35119,-8.39462 -22.81305,-12.97858c-2.9698,-1.82457 -6.12005,-3.50068 -8.94087,-5.54514c-0.51578,-4.89548 -0.13541,-14.68669 -0.18097,-19.9157c-0.12466,-14.21877 0.18404,-28.56911 0.00307,-42.78686z" fill="#0da0d0"/><path d="M150.2163,117.65119c1.14292,0.08805 51.39113,29.49753 56.12816,32.38925c-11.44556,6.16561 -24.05964,13.85939 -35.43379,20.40461l-11.9529,6.87671c-2.42585,1.38942 -5.8692,3.19659 -7.9692,4.90776c-4.15265,-2.13404 -9.0023,-5.14326 -13.09863,-7.50154l-29.77116,-17.18217c-4.29471,-2.45222 -8.9616,-5.2715 -13.31212,-7.53942c4.26578,-2.807 10.33515,-6.09317 14.90375,-8.72432l25.43575,-14.65751c3.33558,-1.91212 12.36502,-6.81015 15.07014,-8.97338z" fill="#aeadad"/><path d="M0,126.71314c5.39496,1.3052 21.37574,11.77551 27.05759,14.86254c5.65009,3.06988 11.84616,6.80964 17.47807,10.0587l49.88626,28.9587c11.50674,6.59309 23.11587,13.13166 34.57423,19.81792c2.28558,1.33362 6.53882,3.81297 7.98046,5.87099c0.21886,18.87415 -0.16638,37.78183 0.10648,56.65828c0.0215,1.48976 -0.08677,3.16638 -0.49403,4.59727c-1.00213,0.52986 -1.74804,-0.62713 -2.71075,-1.09556c-6.88541,-3.35068 -13.21561,-7.70734 -20.05162,-11.21032c-2.65725,-1.36203 -5.42713,-3.39087 -8.07031,-4.89957l-73.07816,-41.9465l-24.85085,-14.47782c-2.37571,-1.36817 -5.56057,-3.59616 -7.82739,-4.76007z" fill="#0da0d0"/><path d="M300,126.75896v62.87201c-17.5802,11.6273 -37.49488,21.81195 -55.7616,32.5308l-49.47415,28.62696l-18.75845,10.89727c-3.83217,2.25 -8.08771,4.93515 -11.98464,6.96502c-0.55085,-8.29352 -0.23166,-19.85964 -0.21988,-28.43985c0.01536,-11.25282 -0.30896,-23.81263 0.03609,-34.96561c0.95401,-0.74898 1.81689,-1.26937 2.88174,-1.8366c4.96382,-2.64471 9.77944,-5.55563 14.61143,-8.432c18.67116,-10.96638 37.42295,-21.79454 56.25435,-32.48345l44.70179,-25.86092c3.5273,-2.03089 14.47526,-8.81237 17.71331,-9.87363z" fill="#3bc9e5"/></g></svg></svg>