<svg id="svg" version="1.1" viewBox="0 0 300 300" width="300" height="300" xmlns="http://www.w3.org/2000/svg"><svg xmlns="http://www.w3.org/2000/svg"><defs><clipPath id="clip-1"><rect x="0" y="0" transform="scale(0.14648,0.14648)" width="2048" height="2048" fill="none"/></clipPath></defs><g clip-path="url(#clip-1)" fill="none" fill-rule="nonzero" stroke="none" stroke-width="1" stroke-linecap="butt" stroke-linejoin="miter" stroke-miterlimit="10" stroke-dasharray="" stroke-dashoffset="0" font-family="none" font-weight="none" font-size="none" text-anchor="none" style="mix-blend-mode: normal"><path d="M236.16797,67.08076c1.09131,0.27949 9.31934,0.16978 10.82813,0.16963l26.521,0.07251c2.13574,-0.01113 14.04639,-0.39404 14.77148,0.2146c-0.00146,0.27759 -3.37354,6.00952 -3.81738,6.78574l-12.92285,22.39775l-59.20898,102.51533l-13.09863,22.71094c-1.16162,2.01416 -5.31445,9.58008 -6.57129,10.82227c-1.0459,-0.06006 -2.53564,0.01318 -3.62988,0.01172l-8.09473,-0.02051l-26.79053,-0.00439c-4.20703,0.00293 -9.58198,0.17139 -13.70361,-0.00879c-1.01309,-1.09277 -3.18955,-5.21191 -4.11445,-6.8042l-9.90278,-17.13721c-0.60615,-0.97705 -1.14873,-2.02002 -1.7376,-3.01172c-5.97935,-10.07666 -11.56538,-20.47266 -17.65898,-30.47168c1.70288,-2.56494 3.77886,-6.4248 5.35518,-9.1582l10.31748,-17.88867l6.75454,-11.68784c0.98994,-1.69409 2.99604,-4.71123 3.64409,-6.45542l0.2127,-0.05171c1.01704,1.06069 3.53936,5.8002 4.44478,7.35073l12.51855,21.67969l10.04297,17.35693c1.72266,2.94434 4.84277,8.02441 6.17139,10.89551c1.19678,-1.59375 2.21045,-3.57275 3.19922,-5.31738l3.57129,-6.17871l13.45605,-23.27783l33.31494,-57.72495l10.27295,-17.80269c1.83545,-3.18149 3.89209,-6.93105 5.85498,-9.98145z" fill="#3398db"/><path d="M107.26611,67.4105c17.32104,-0.27803 35.01196,0.14253 52.39014,-0.03223c1.09863,1.30063 3.95801,6.63135 4.99512,8.41611l11.92383,20.61577l10.99365,19.07344c1.32129,2.28765 4.20117,6.85518 5.16504,9.04819c-0.44092,1.26328 -1.74902,3.43315 -2.44336,4.64487l-4.06494,7.06787l-13.77246,23.86582c-1.4165,2.41699 -4.91748,7.97607 -5.61035,10.16895c-1.44727,-2.09033 -3.0249,-5.02881 -4.33447,-7.28174l-8.24268,-14.28516l-12.87964,-22.29243c-2.55688,-4.42324 -5.48335,-9.24448 -7.86152,-13.725c-1.07622,1.26387 -2.51895,3.98218 -3.41133,5.51279c-1.94062,3.32827 -3.80728,6.73169 -5.75845,10.05835l-27.39346,47.39502c-2.40205,3.93164 -4.88086,8.49023 -7.21157,12.51855l-16.88789,29.22363c-2.52744,4.35205 -6.22075,11.36865 -8.97656,15.35889c-1.81934,-0.16699 -4.88789,-0.14941 -6.75059,-0.15381l-10.40083,-0.00586h-35.03691c0.60747,-1.41504 1.75916,-3.2915 2.5511,-4.65967l4.13156,-7.12207l13.19883,-22.8501l58.34663,-101.06924l9.023,-15.65493c1.11929,-1.96011 7.19238,-12.83936 8.31812,-13.83604z" fill="#2c3f51"/></g></svg></svg>